<svg width="16" height="16" viewBox="0 0 16 16" fill="none" xmlns="http://www.w3.org/2000/svg">
<path d="M13 10.0002H3C2.447 10.0002 2 10.4482 2 11.0002V15.0002C2 15.5522 2.447 16.0002 3 16.0002H13C13.553 16.0002 14 15.5522 14 15.0002V11.0002C14 10.4482 13.553 10.0002 13 10.0002Z" fill="#AFB695"/>
<path d="M13.118 5.0002L10.894 0.553201C10.647 0.0592013 10.046 -0.140799 9.552 0.106201C9.059 0.353201 8.858 0.953201 9.105 1.4472L10.882 5.0002H5.118L6.894 1.4472C7.141 0.953201 6.941 0.352201 6.447 0.105201C5.953 -0.140799 5.354 0.0592013 5.105 0.553201L2.882 5.0002H0V9.0002H16V5.0002H13.118Z" fill="#AFB695"/>
</svg>
