<svg width="62" height="58" viewBox="0 0 62 58" fill="none" xmlns="http://www.w3.org/2000/svg">
<path d="M41.083 2.98388C38.164 -0.0381233 33.292 0.455877 31 4.02988C28.706 0.451877 23.833 -0.0351235 20.917 2.98288C18.361 5.62788 18.361 9.91788 20.917 12.5629L30.999 22.9999L41.083 12.5639C43.639 9.91788 43.639 5.62888 41.083 2.98388Z" stroke="#79862E" stroke-width="2" stroke-miterlimit="10" stroke-linecap="square"/>
<path d="M49 38.9998C52.3137 38.9998 55 36.3135 55 32.9998C55 29.686 52.3137 26.9998 49 26.9998C45.6863 26.9998 43 29.686 43 32.9998C43 36.3135 45.6863 38.9998 49 38.9998Z" stroke="#79862E" stroke-width="2" stroke-miterlimit="10" stroke-linecap="square"/>
<path d="M13 38.9998C16.3137 38.9998 19 36.3135 19 32.9998C19 29.686 16.3137 26.9998 13 26.9998C9.68629 26.9998 7 29.686 7 32.9998C7 36.3135 9.68629 38.9998 13 38.9998Z" stroke="#79862E" stroke-width="2" stroke-miterlimit="10" stroke-linecap="square"/>
<path d="M25 57V51.035C25 49.615 24.255 48.309 23.033 47.586C21.088 46.435 17.716 45 13 45C8.223 45 4.873 46.426 2.948 47.575C1.736 48.299 1 49.601 1 51.013V57H25Z" stroke="#79862E" stroke-width="2" stroke-miterlimit="10" stroke-linecap="square"/>
<path d="M61 57V51.035C61 49.615 60.255 48.309 59.033 47.586C57.088 46.435 53.716 45 49 45C44.223 45 40.873 46.426 38.948 47.575C37.736 48.299 37 49.601 37 51.013V57H61Z" stroke="#79862E" stroke-width="2" stroke-miterlimit="10" stroke-linecap="square"/>
</svg>
