<svg width="116" height="16" viewBox="0 0 116 16" fill="none" xmlns="http://www.w3.org/2000/svg">
<path d="M10 5.744L8 0L6 5.744H0L4.89 9.572L2.968 15.488L8 11.832L13.032 15.488L11.11 9.572L16 5.744H10Z" fill="#A9B090"/>
<path d="M35 5.744L33 0L31 5.744H25L29.89 9.572L27.968 15.488L33 11.832L38.032 15.488L36.11 9.572L41 5.744H35Z" fill="#A9B090"/>
<path d="M60 5.744L58 0L56 5.744H50L54.89 9.572L52.968 15.488L58 11.832L63.032 15.488L61.11 9.572L66 5.744H60Z" fill="#A9B090"/>
<path d="M85 5.744L83 0L81 5.744H75L79.89 9.572L77.968 15.488L83 11.832L88.032 15.488L86.11 9.572L91 5.744H85Z" fill="#A9B090"/>
<path d="M110 5.744L108 0L106 5.744H100L104.89 9.572L102.968 15.488L108 11.832L113.032 15.488L111.11 9.572L116 5.744H110Z" fill="#A9B090"/>
</svg>
