<svg width="122" height="109" viewBox="0 0 122 109" fill="none" xmlns="http://www.w3.org/2000/svg">
<path d="M16.0971 74.0408C16.2241 75.2409 16.4365 76.2954 16.7795 77.3777L16.955 77.5787C17.0428 77.6792 17.0878 77.8524 17.1328 78.0257C17.3939 78.0811 17.7322 78.6714 17.9505 78.7996C18.3871 79.0561 18.8214 79.0665 19.2256 78.9614C19.5722 78.8713 19.8459 78.7385 20.1196 78.6057C22.1791 77.5156 23.5919 75.3605 24.6154 73.3682C25.6689 71.4914 26.5041 69.4863 27.1361 67.4109C27.2493 67.1348 27.3129 66.1935 27.6744 66.1612C28.1514 66.0989 28.2506 67.4294 28.3107 67.6604C28.8093 71.4766 27.1239 75.4289 24.9522 78.4595C24.2233 79.4504 23.223 80.8201 21.9824 81.2659C20.9429 81.5361 19.6228 81.201 18.6214 80.9064C16.6914 80.3599 14.7996 79.2486 13.669 77.508C12.8618 76.2998 12.7603 74.7232 12.5883 73.3499C12.631 73.2771 12.3354 72.6141 12.4059 72.4108C12.3631 72.4836 12.5282 73.1188 12.5282 73.1188C12.526 72.8728 12.4359 72.5263 12.4336 72.2803C12.3909 72.3531 12.2985 71.7605 12.2985 71.7605C12.2662 71.399 12.2489 71.0953 12.2316 70.7915C12.2247 70.0534 12.2329 69.3731 12.2838 68.6201C12.3855 67.114 12.6178 65.6356 12.6468 64.0867C12.7208 62.7111 12.9831 61.3482 13.3032 59.9703C13.3864 59.5788 14.1224 56.2432 14.4839 56.2109L14.388 56.7907C14.5694 56.0654 14.8085 55.325 15.0477 54.5847C14.9194 54.803 14.7912 55.0213 14.7912 55.0213C14.8444 54.5142 15.2568 53.7288 15.4405 53.2495C15.5514 52.7275 15.7501 52.3059 15.9188 51.7689C16.3139 50.6797 16.8095 49.5028 17.3351 48.4414C18.0894 47.0739 19.2284 45.0516 20.8304 44.5736C23.7307 43.6348 26.2738 46.3031 26.9193 48.7864L26.9343 48.8441C27.2795 50.1724 27.3233 51.764 26.7122 52.9709C26.1438 54.1051 24.797 55.5649 23.6292 56.0534C23.3555 56.1862 22.8657 56.4368 22.8034 55.9598C22.7884 55.902 22.8739 55.7565 22.9744 55.6687L23.0899 55.6387C23.3059 55.5209 23.7554 52.5064 24.0014 52.5041C24.0014 52.5041 23.7946 53.606 23.7969 53.852C24.132 52.5318 24.4093 51.2267 24.541 49.8361C24.5769 49.0253 24.7665 47.6197 24.2826 46.9439C23.5804 46.14 22.49 47.1632 22.0025 47.6599L21.5578 48.0837L21.7161 47.9809C21.5728 48.1415 21.4296 48.302 21.3441 48.4475C21.4723 48.2292 21.6733 48.0537 21.8893 47.9359C22.2613 47.4693 23.2362 46.4761 23.9338 46.788C24.4858 47.0144 24.5204 47.6219 24.4823 48.1867C24.4904 47.5064 24.3103 46.8134 23.5873 46.878C22.922 46.9277 22.5523 47.6403 22.0626 47.8909C20.673 49.4234 19.81 51.559 19.133 53.4612C18.3856 55.5667 17.7836 57.7577 17.3122 59.9764C16.813 62.3257 16.6177 64.6576 16.3795 67.0623C16.1691 69.3365 15.9587 71.6107 16.1249 73.9103L16.1699 74.0836C16.0671 73.9253 16.0671 73.9253 16.0971 74.0408L16.1399 73.9681C16.0821 73.9831 16.0821 73.9831 16.0971 74.0408ZM19.1806 50.7978C17.6869 53.5904 16.6599 56.7551 16.0671 59.9301C15.5702 62.5254 15.2616 65.1334 15.1413 67.7541C15.2558 66.0597 15.5585 64.378 15.8763 62.7541C16.4436 59.9556 17.041 57.2726 17.8116 54.5445C18.1767 53.3399 18.6272 51.9897 19.1806 50.7978ZM21.2563 48.347C20.5274 49.338 20.0596 50.3843 19.6067 51.4885C19.9336 50.8487 20.2305 50.0933 20.6302 49.4962C20.7434 49.2202 20.9849 48.7258 21.2563 48.347ZM24.3887 49.0126C24.3286 48.7816 24.4118 48.39 24.3795 48.0285C24.3968 48.3323 24.3991 48.5783 24.4014 48.8243C24.3586 48.8971 24.3586 48.8971 24.3887 49.0126Z" fill="#79862F"/>
<path d="M47.392 62.0845C47.2152 63.3018 46.8928 64.4337 46.5705 65.5656C46.1627 66.843 45.7398 68.0626 45.1865 69.2546C44.7614 70.2282 44.1225 71.5656 43.0703 72.0241C41.9176 72.5703 40.6656 71.786 39.9761 70.7938C38.5545 68.8821 38.6044 66.4647 38.6992 64.2205C38.6992 64.2205 38.6092 63.874 38.6069 63.628C38.3955 64.2378 38.0558 65.0659 37.8444 65.6758C37.5625 66.4889 37.4539 67.2569 37.157 68.0123C37.0161 68.4188 35.0014 72.7649 34.432 72.2347C34.432 72.2347 34.849 71.9414 34.7762 71.8987C34.3893 72.3075 33.8268 72.5154 33.3347 72.5199C33.4652 72.5477 33.538 72.5904 33.538 72.5904C32.7595 72.9161 31.7212 71.7679 31.3979 71.2354C30.8389 70.2709 30.6115 69.1587 30.5146 68.0741C30.3634 65.8322 30.6443 63.3548 31.3768 61.1915C31.6032 60.6394 31.7719 60.1024 32.2016 59.6208C32.4303 59.3147 32.6463 59.1969 32.9327 58.8758C33.3324 58.2787 33.7471 57.7394 34.5556 57.5292C36.3459 57.0639 37.5643 58.9051 38.3288 60.1861C38.8949 58.8059 40.0789 56.9568 41.8852 58.2136C42.8612 58.8847 42.5065 59.6551 42.3124 60.5687C41.9496 62.0193 41.8351 63.7137 41.8916 65.1171C41.9193 64.9866 41.8997 64.4368 42.0002 64.349C42.274 64.2162 41.8066 73.0924 44.3597 67.4966C45.1394 65.7526 45.7459 64.0536 46.3374 62.2969C46.6193 61.4838 46.8285 60.628 47.1104 59.8149C47.2663 59.4661 47.7214 58.6079 47.9893 59.4014C48.084 60.24 47.5006 61.3164 47.392 62.0845ZM37.4463 61.7718C37.3712 61.4831 36.0951 59.6569 36.2961 59.4813C36.3388 59.4086 36.9128 60.4308 36.9855 60.4735C36.7499 60.0416 36.2892 58.7433 35.5962 58.9234C34.3834 59.2386 34.0298 61.6734 33.9084 62.6297C33.5779 64.4419 33.408 66.3973 33.5695 68.2049C33.55 67.6551 33.9178 60.531 34.6108 60.3509C34.1211 60.6015 33.6713 66.6987 33.6909 67.2485C33.7082 67.5523 33.626 69.6082 34.1908 69.6464C34.5673 69.6718 35.1334 68.2916 35.3044 68.0006C35.7872 67.0119 36.1823 65.9228 36.5925 64.8914L37.1712 63.323C37.2845 63.0469 37.3827 62.7131 37.4959 62.4371C37.5213 62.0606 37.5213 62.0606 37.4463 61.7718ZM37.5017 61.5108L37.5918 61.8573C37.6773 61.7118 37.6472 61.5963 37.5017 61.5108ZM38.8183 63.0182L38.7201 63.352C38.6924 63.4825 38.712 64.0323 38.712 64.0323L38.8183 63.0182Z" fill="#79862F"/>
<path d="M59.2934 59.4843C58.7551 60.7339 58.3472 62.0113 57.6634 63.1755C57.2082 64.0337 56.4112 65.4739 55.2816 65.3976C55.0356 65.3999 53.5121 64.9943 53.5249 64.8061L53.6554 64.8338L53.3643 64.6628C53.6126 64.9066 53.1183 64.6651 53.1183 64.6651C52.9 64.5369 52.6517 64.2932 52.4762 64.0922C52.1978 63.733 52.035 63.3437 51.93 62.9394C51.8249 62.5352 51.7776 62.1159 51.7302 61.6966C51.5778 60.8731 51.4405 60.1073 51.4613 59.2388C51.474 59.0505 51.6995 56.8341 52.0032 56.8168C52.061 56.8018 51.9478 57.0778 52.0205 57.1205L52.2701 55.9459C52.2274 56.0187 52.1996 56.1492 52.1419 56.1642C52.0691 56.1215 52.3787 55.1779 52.3915 54.9896C51.8508 55.9932 51.5135 57.0674 51.1034 58.0988C50.8065 58.8541 50.334 59.4085 50.1376 60.076C49.7321 61.5995 49.0505 63.0097 48.8333 64.5458L48.5849 64.3021C48.1598 65.2757 46.9229 64.5491 46.3685 64.0767C45.8719 63.5892 45.8673 63.0972 45.76 62.4469C45.6676 61.8544 45.5175 61.2769 45.5256 60.5966C45.5615 59.7858 45.6551 58.9599 45.7488 58.1341C45.7846 57.3233 45.8783 56.4975 45.9569 55.6139C46.01 55.1069 46.2064 54.4393 46.1869 53.8895C46.1973 53.4552 46.0217 53.2543 46.4087 52.8454C46.8107 52.4943 47.2727 52.3742 47.7497 52.3119C48.3572 52.2773 49.5619 52.6424 49.2095 53.6588C49.0686 54.0653 48.6966 54.5319 48.4979 54.9535C48.2565 55.4478 48.3593 55.606 48.3061 56.1131C48.3234 56.4168 48.0947 56.7229 47.9965 57.0567C47.8706 57.521 47.8901 58.0708 47.837 58.5778C47.8543 58.8816 47.9143 59.1126 47.9894 59.4013C48.1267 60.1671 48.0331 60.9929 48.1855 61.8165C48.1982 61.6282 48.3692 61.3372 48.442 61.3799C48.5147 61.4226 48.2606 62.1052 48.2606 62.1052L49.5868 58.4313C49.2899 59.1866 49.0485 59.6809 49.0485 59.6809C48.918 59.6532 51.8083 52.9833 52.208 52.3862C52.9924 51.1342 54.3934 50.8317 55.2907 52.3864C56.3486 54.0844 54.743 55.7348 54.2219 57.2882C53.9551 58.159 53.776 59.1304 53.6246 59.9712C53.5137 60.4933 53.2063 61.6829 53.3587 62.5064C53.2814 61.9717 53.5055 61.1736 53.5887 60.782C53.6823 59.9562 53.9215 59.2159 54.3639 58.546C54.253 59.0681 54.0843 59.6051 53.9584 60.0694L54.0716 59.7934C54.1293 59.7784 54.0403 61.0962 54.0703 61.2117C54.0171 61.7188 54.0217 62.2108 54.0841 62.6878C54.0413 62.7606 54.2492 63.3231 54.2492 63.3231L54.3219 63.3658C54.3069 63.3081 54.5379 63.248 54.6384 63.1603C55.1132 62.8519 55.5556 62.1821 55.8698 61.7305C56.5559 60.8123 57.2271 59.8364 57.8404 58.8755C58.3256 58.1328 58.984 57.3452 59.2809 56.5898C59.4219 56.1833 59.7915 55.4707 60.1899 56.2919C60.6034 57.1709 59.5325 58.7439 59.2934 59.4843Z" fill="#79862F"/>
<path d="M75.6903 54.7294C75.5135 55.9467 75.1912 57.0786 74.8688 58.2105C74.461 59.4879 74.0382 60.7075 73.4848 61.8995C73.0597 62.8731 72.4209 64.2105 71.3686 64.669C70.2159 65.2152 68.9639 64.4309 68.2745 63.4387C66.8528 61.527 66.9027 59.1096 66.9976 56.8654C66.9976 56.8654 66.9075 56.5189 66.9052 56.2729C66.6938 56.8827 66.3542 57.7108 66.1428 58.3207C65.8609 59.1338 65.7522 59.9018 65.4553 60.6572C65.3144 61.0637 63.2997 65.4098 62.7303 64.8796C62.7303 64.8796 63.1473 64.5863 63.0746 64.5436C62.6876 64.9524 62.1251 65.1603 61.6331 65.1648C61.7636 65.1926 61.8363 65.2353 61.8363 65.2353C61.0578 65.561 60.0196 64.4128 59.6962 63.8803C59.1373 62.9158 58.9098 61.8036 58.8129 60.719C58.6618 58.4771 58.9426 55.9997 59.6751 53.8364C59.9015 53.2843 60.0702 52.7473 60.4999 52.2657C60.7286 51.9596 60.9446 51.8418 61.2311 51.5207C61.6308 50.9236 62.0455 50.3843 62.854 50.1741C64.6443 49.7088 65.8626 51.55 66.6272 52.831C67.1932 51.4508 68.3773 49.6017 70.1836 50.8585C71.1595 51.5296 70.8049 52.3 70.6107 53.2136C70.2479 54.6642 70.1335 56.3586 70.1899 57.762C70.2177 57.6314 70.1981 57.0817 70.2986 56.9939C70.5723 56.8611 70.105 65.7373 72.658 60.1415C73.4378 58.3975 74.0443 56.6985 74.6358 54.9418C74.9177 54.1287 75.1268 53.2729 75.4087 52.4598C75.5646 52.111 76.0198 51.2528 76.2877 52.0463C76.3823 52.8849 75.799 53.9613 75.6903 54.7294ZM65.7446 54.4167C65.6695 54.1279 64.3934 52.3018 64.5944 52.1262C64.6371 52.0535 65.2111 53.0757 65.2839 53.1184C65.0483 52.6864 64.5875 51.3882 63.8945 51.5683C62.6817 51.8835 62.3281 54.3183 62.2068 55.2746C61.8763 57.0868 61.7063 59.0422 61.8679 60.8498C61.8483 60.3 62.2162 53.1759 62.9092 52.9958C62.4194 53.2464 61.9696 59.3436 61.9892 59.8934C62.0065 60.1972 61.9244 62.2531 62.4892 62.2913C62.8657 62.3167 63.4317 60.9365 63.6027 60.6455C64.0856 59.6568 64.4807 58.5677 64.8908 57.5363L65.4696 55.9679C65.5828 55.6918 65.681 55.358 65.7942 55.082C65.8197 54.7055 65.8197 54.7055 65.7446 54.4167ZM65.8001 54.1557L65.8901 54.5022C65.9756 54.3567 65.9456 54.2412 65.8001 54.1557ZM67.1166 55.6631L67.0184 55.9969C66.9757 56.0696 66.9953 56.6194 66.9953 56.6194L67.1166 55.6631Z" fill="#79862F"/>
<path d="M93.8795 49.7551C93.3389 50.7588 92.8133 51.8202 92.3454 52.8666C91.3242 55.1049 90.7095 57.4842 89.7033 59.7802C88.9236 61.5242 87.6505 64.6911 85.2343 63.2229C83.2848 62.1267 82.9235 59.0763 82.6014 57.1254C81.7893 58.5079 80.9045 59.8476 79.9319 61.0869C79.3589 61.729 78.7005 62.5167 77.7742 62.5108C74.7943 62.6688 74.1628 58.5789 74.476 56.463C74.6378 55.1878 74.5109 53.9878 74.9037 52.6526C75.3092 51.1292 75.9585 49.3575 77.1944 48.4197C78.7468 47.2764 80.8015 48.7769 82.0834 49.6768C82.1241 46.2753 82.5414 42.8992 83.1319 39.4782C83.1596 39.3477 83.1782 38.2331 83.4069 37.927C83.2636 38.0876 83.2405 38.7101 83.2578 39.0139C83.326 38.5646 83.3942 38.1153 83.5201 37.651L83.4623 37.666C83.5328 37.4627 83.6946 36.1876 83.7801 36.0421C83.9915 35.4323 84.2029 34.8224 84.4294 34.2704C84.9122 33.2817 85.5256 32.3208 86.4173 31.7191C87.6105 30.8541 89.7069 30.6175 90.6169 31.984C91.893 33.8101 91.1374 36.5959 90.591 38.5259C90.2259 39.7305 89.8608 40.9352 89.423 42.0971L88.8141 43.55L88.5577 43.9866C88.6004 43.9138 88.5704 43.7983 88.5704 43.7983L88.3867 44.2776L88.4445 44.2626L88.3867 44.2776L88.3163 44.4809L87.3124 47.023C87.4256 46.747 87.6243 46.3254 87.697 46.3681C87.697 46.3681 86.0393 50.1899 85.8833 50.5387C85.2595 51.9339 85.6243 53.812 85.8263 55.3008C85.8632 56.1544 86.2174 61.5494 87.5457 61.2042C87.8922 61.1141 88.1313 60.3738 88.2595 60.1555C88.6292 59.4429 88.9839 58.6725 89.2807 57.9172C89.9173 56.3337 90.5111 54.823 91.0899 53.2546C91.6837 51.7439 92.3352 50.2182 93.1323 48.7779C93.3183 48.5446 94.4099 46.103 94.9562 47.2558L94.9712 47.3135C95.2668 47.9765 94.2919 48.9698 93.8795 49.7551ZM82.0982 52.8172C82.1063 52.1369 82.1722 51.4416 81.6756 50.9542C81.209 50.5822 80.7552 50.022 80.2031 49.7956C79.9848 49.6674 79.651 49.5692 79.45 49.7447C79.3923 49.7597 79.3923 49.7597 79.3495 49.8325L79.4928 49.6719C78.757 49.9248 78.5097 51.3455 78.3006 52.2013C77.8823 53.913 77.6096 55.7102 77.5829 57.505C77.5597 58.1276 77.4071 60.3867 78.3057 60.5231C78.8277 60.634 79.3707 59.8764 79.7276 59.3521C79.3707 59.8764 78.8682 60.3153 78.5644 60.3326C77.3366 60.59 77.5875 57.9971 77.7897 56.4032C77.6452 57.982 77.4949 60.4872 78.5644 60.3326C79.388 60.1802 80.326 58.3334 80.7834 57.7213C81.2258 57.0514 81.6532 56.3238 82.0806 55.5962C82.5508 54.7958 82.3557 54.045 82.246 53.1487C82.246 53.1487 82.231 53.091 82.2587 52.9605L82.2137 52.7872L82.0982 52.8172ZM79.8986 59.061C80.356 58.4489 80.8134 57.8368 81.1553 57.2547C81.4695 56.8031 82.3567 55.7094 82.3521 55.2174C81.7687 56.2938 81.0699 57.4002 80.3987 58.3761L79.8986 59.061ZM78.9926 50.3568C79.0503 50.3418 79.1208 50.1385 79.2213 50.0508C79.1208 50.1385 79.0503 50.3418 78.9926 50.3568ZM80.4341 49.7355C80.3613 49.6928 80.2308 49.6651 80.158 49.6223L80.4341 49.7355ZM83.5957 45.7695C83.613 46.0733 83.3138 46.5826 83.3161 46.8286C83.2629 47.3357 83.614 47.7376 83.4153 48.1592C83.473 48.1442 83.458 48.0864 83.458 48.0864C83.5435 47.9409 83.5644 47.0724 83.5621 46.8263C83.5748 46.6381 83.6707 46.0583 83.5957 45.7695ZM83.5117 41.414C83.4585 41.921 83.3049 42.5158 83.2367 42.9651C83.1408 43.5449 83.1604 44.0947 83.1372 44.7173C83.2631 44.253 83.3313 43.8037 83.3418 43.3694C83.3649 42.7468 83.4885 42.0365 83.5117 41.414ZM85.8146 43.1582L85.7442 43.3615C85.7314 43.5498 85.7465 43.6075 85.7314 43.5498C85.617 45.2442 85.5025 46.9385 85.4457 48.6179C85.4885 48.5451 85.5162 48.4146 85.559 48.3419C85.4457 48.6179 85.3325 48.8939 85.3348 49.14L85.463 48.9217L85.604 48.5151L86.8216 45.6092L86.311 46.7284L85.7126 47.7471C86.7338 45.5087 87.5945 43.1272 88.3397 40.7757C88.9866 38.7579 90.0437 35.7088 89.3578 33.5443C89.2678 33.1978 89.0899 32.7507 88.6984 32.6676C87.7698 32.4157 87.2233 34.3457 87.0119 34.9555C86.239 37.4375 85.9731 39.9727 85.7073 42.508L85.7223 42.5657C85.7223 42.5657 85.6795 42.6385 85.7096 42.754L85.7246 42.8117C85.6818 42.8845 85.6968 42.9422 85.7118 43C85.7996 43.1005 85.7996 43.1005 85.8146 43.1582ZM85.7442 43.3615C85.7592 43.4193 85.7314 43.5498 85.7314 43.5498L85.8146 43.1582L85.7442 43.3615ZM87.2546 47.038C87.2119 47.1108 87.2119 47.1108 87.2269 47.1685C87.2269 47.1685 87.2696 47.0958 87.2546 47.038ZM87.2823 46.9075L87.2396 46.9803C87.2546 47.038 87.2974 46.9652 87.2823 46.9075Z" fill="#79862F"/>
<path d="M110.399 45.7083C110.222 46.9257 109.9 48.0575 109.577 49.1894C109.17 50.4668 108.747 51.6865 108.193 52.8784C107.768 53.852 107.129 55.1895 106.077 55.6479C104.924 56.1941 103.672 55.4098 102.983 54.4176C101.561 52.5059 101.611 50.0885 101.706 47.8443C101.706 47.8443 101.616 47.4978 101.614 47.2518C101.402 47.8616 101.063 48.6898 100.851 49.2996C100.569 50.1127 100.461 50.8807 100.164 51.6361C100.023 52.0426 98.0082 56.3888 97.4388 55.8586C97.4388 55.8586 97.8558 55.5652 97.7831 55.5225C97.3961 55.9313 96.8336 56.1392 96.3416 56.1438C96.4721 56.1715 96.5448 56.2142 96.5448 56.2142C95.7663 56.5399 94.7281 55.3917 94.4047 54.8592C93.8458 53.8948 93.6183 52.7825 93.5214 51.6979C93.3703 49.456 93.6511 46.9786 94.3836 44.8153C94.61 44.2632 94.7787 43.7262 95.2084 43.2446C95.4371 42.9385 95.6531 42.8207 95.9396 42.4997C96.3393 41.9026 96.7539 41.3632 97.5625 41.1531C99.3528 40.6877 100.571 42.5289 101.336 43.8099C101.902 42.4297 103.086 40.5806 104.892 41.8374C105.868 42.5086 105.513 43.2789 105.319 44.1925C104.956 45.6432 104.842 47.3375 104.898 48.7409C104.926 48.6104 104.907 48.0606 105.007 47.9728C105.281 47.84 104.813 56.7162 107.366 51.1204C108.146 49.3764 108.753 47.6774 109.344 45.9207C109.626 45.1076 109.835 44.2518 110.117 43.4387C110.273 43.0899 110.728 42.2318 110.996 43.0253C111.091 43.8638 110.507 44.9402 110.399 45.7083ZM100.453 45.3956C100.378 45.1069 99.1019 43.2807 99.3029 43.1052C99.3456 43.0324 99.9196 44.0546 99.9924 44.0974C99.7568 43.6654 99.296 42.3671 98.603 42.5472C97.3902 42.8625 97.0366 45.2972 96.9152 46.2535C96.5848 48.0657 96.4148 50.0211 96.5764 51.8287C96.5568 51.2789 96.9247 44.1549 97.6177 43.9747C97.1279 44.2253 96.6781 50.3226 96.6977 50.8724C96.715 51.1761 96.6329 53.232 97.1977 53.2702C97.5742 53.2956 98.1402 51.9154 98.3112 51.6244C98.7941 50.6357 99.1892 49.5466 99.5993 48.5152L100.178 46.9468C100.291 46.6707 100.39 46.337 100.503 46.0609C100.528 45.6844 100.528 45.6844 100.453 45.3956ZM100.509 45.1346L100.599 45.4811C100.684 45.3356 100.654 45.2201 100.509 45.1346ZM101.825 46.642L101.712 46.918C101.684 47.0485 101.704 47.5983 101.704 47.5983L101.825 46.642Z" fill="#79862F"/>
<path d="M26.3938 29.6868L27.4946 28.2293C28.1381 27.3838 28.9639 27.4775 29.4882 27.8344C30.0126 28.1913 30.3382 28.9698 29.6948 29.8153L29.0664 30.7184L30.3784 31.7338L29.921 32.3459L26.3938 29.6868ZM29.0458 28.5043C28.8125 28.3183 28.421 28.2351 28.1495 28.6139L27.4634 29.5321L28.5271 30.3037L29.2132 29.3856C29.4269 29.0217 29.2791 28.6902 29.0458 28.5043Z" fill="#79862F"/>
<path d="M30.9021 24.2609L32.3367 22.9016C33.1256 22.1417 33.8082 22.3958 34.3048 22.8833C34.6409 23.2275 34.8638 23.8477 34.5219 24.4298L36.4241 25.1068L35.8361 25.6912L34.0644 25.042L33.4187 25.6414L34.6025 26.875L34.0573 27.3866L30.9021 24.2609ZM33.696 24.3362C34.0403 24.0001 33.9502 23.6536 33.7747 23.4526C33.5991 23.2517 33.2503 23.0957 32.8483 23.4468L31.9589 24.2945L32.8066 25.1839L33.696 24.3362Z" fill="#79862F"/>
<path d="M37.5475 21.3626C36.9458 20.4709 36.7311 19.1704 37.8966 18.4359C39.1048 17.6286 40.1535 18.3425 40.7551 19.2342C41.3568 20.1259 41.5715 21.4265 40.4061 22.161C39.2556 22.9532 38.1492 22.2543 37.5475 21.3626ZM40.1222 19.6453C39.726 19.0701 39.0262 18.5122 38.2927 19.0111C37.5592 19.51 37.8421 20.3613 38.1805 20.9515C38.5766 21.5267 39.2765 22.0846 40.01 21.5857C40.7585 21.1446 40.5183 20.2206 40.1222 19.6453Z" fill="#79862F"/>
<path d="M44.3912 14.9595C45.7749 14.3532 46.7809 15.1399 47.2243 16.1344C47.6528 17.0711 47.6215 18.3739 46.1222 19.0102L44.8967 19.5137L43.1657 15.463L44.3912 14.9595ZM46.4458 16.46C46.1502 15.797 45.5081 15.2241 44.7873 15.5347L44.1243 15.8303L45.2641 18.5551L45.8843 18.3322C46.7784 17.9766 46.7415 17.123 46.4458 16.46Z" fill="#79862F"/>
<path d="M50.7217 15.5955L50.089 12.9239L50.8398 12.7288L51.4725 15.4004C51.6676 16.1512 52.0742 16.2921 52.6667 16.1997C53.1865 16.0647 53.5457 15.7863 53.3355 14.9778L52.7028 12.3062L53.4536 12.1111L54.0863 14.7827C54.3588 16.0682 53.7131 16.6676 52.8468 16.8928C51.9078 17.0752 50.9942 16.8811 50.7217 15.5955Z" fill="#79862F"/>
<path d="M57.4638 13.7815C57.3819 12.7547 57.7897 11.4773 59.1931 11.4208C60.0466 11.3839 60.586 11.7986 60.7638 12.2456L60.1158 12.599C59.8525 12.2975 59.6192 12.1115 59.2577 12.1438C58.4619 12.1657 58.2678 13.0793 58.3174 13.7446C58.382 14.4676 58.7076 15.2461 59.4457 15.2392C59.8072 15.2069 60.0509 14.9586 60.2646 14.5948L61.005 14.834C60.7936 15.4438 60.2911 15.8827 59.5103 15.9623C58.107 16.0188 57.5608 14.866 57.4638 13.7815Z" fill="#79862F"/>
<path d="M65.806 15.9903L65.0529 15.9394L65.3951 12.2746L64.135 12.1706L64.2009 11.4753L67.4314 11.807L67.3655 12.5023L66.1054 12.3983L65.806 15.9903Z" fill="#79862F"/>
<path d="M74.3414 15.6214C74.7515 14.59 75.6259 13.6846 76.9333 14.2079C78.2408 14.7312 78.325 16.004 77.9149 17.0354C77.5048 18.0668 76.6303 18.9723 75.3229 18.4489C74.0155 17.9256 73.9313 16.6528 74.3414 15.6214ZM77.2173 16.7235C77.4714 16.0409 77.4923 15.1724 76.7369 14.8755C75.9238 14.5936 75.3659 15.2935 75.0967 15.9183C74.8426 16.6009 74.8217 17.4694 75.5771 17.7663C76.3324 18.0632 76.9481 17.3483 77.2173 16.7235Z" fill="#79862F"/>
<path d="M82.2835 16.7637L84.6996 18.2319L84.3577 18.814L82.5387 17.7454L81.983 18.6913L83.1472 19.3752L82.8053 19.9573L81.6411 19.2734L80.658 20.947L80.0032 20.5623L82.2835 16.7637Z" fill="#79862F"/>
<path d="M38.3389 84.6594L39.8392 85.6875C40.7424 86.3159 40.6337 87.084 40.2918 87.6661C39.9349 88.1904 39.1714 88.5738 38.326 87.9304L37.4228 87.302L36.4802 88.6568L35.8681 88.1993L38.3389 84.6594ZM39.6797 87.2087C39.8657 86.9754 39.9488 86.5838 39.5123 86.3274L38.6091 85.699L37.8375 86.7627L38.7406 87.3911C39.1195 87.6625 39.5087 87.4997 39.6797 87.2087Z" fill="#79862F"/>
<path d="M44.7145 88.5511L46.5163 89.3158C47.4899 89.741 47.5545 90.464 47.3004 91.1466C47.1167 91.6259 46.5992 92.007 45.9617 91.9261L46.0527 93.937L45.2824 93.5823L45.2213 91.687L44.3932 91.3473L43.6989 92.9458L43.0013 92.6339L44.7145 88.5511ZM45.6938 91.1326C46.1153 91.3313 46.4318 91.1257 46.545 90.8497C46.6582 90.5737 46.6837 90.1971 46.2044 90.0134L45.1002 89.5606L44.5896 90.6798L45.6938 91.1326Z" fill="#79862F"/>
<path d="M51.2723 93.382C51.4941 92.3379 52.2657 91.2742 53.6286 91.5365C55.0065 91.8565 55.264 93.0843 55.0421 94.1284C54.8203 95.1725 54.0487 96.2362 52.6858 95.9739C51.3229 95.7116 51.0504 94.4261 51.2723 93.382ZM54.3318 94.0048C54.4555 93.2945 54.3608 92.4559 53.505 92.2468C52.6641 92.0954 52.194 92.8958 52.0553 93.5484C51.9317 94.2587 52.0263 95.0972 52.8822 95.3064C53.6653 95.4727 54.1932 94.6574 54.3318 94.0048Z" fill="#79862F"/>
<path d="M61.1914 92.4069C62.7252 92.3782 63.3292 93.5159 63.3107 94.6305C63.3198 95.6146 62.7665 96.8065 61.1749 96.8502L59.8143 96.834L59.7881 92.4634L61.1914 92.4069ZM62.5149 94.6524C62.508 93.9143 62.1823 93.1358 61.3288 93.1727L60.5907 93.1796L60.5605 96.1468L61.2408 96.1549C62.2098 96.088 62.5067 95.3327 62.5149 94.6524Z" fill="#79862F"/>
<path d="M68.1302 94.6724L67.5703 92.0436L68.3361 91.9062L68.896 94.535C69.0334 95.3008 69.5127 95.4845 70.0325 95.3494C70.5523 95.2143 70.9115 94.936 70.7741 94.1702L70.2141 91.5414L70.9799 91.404L71.5399 94.0328C71.8124 95.3184 71.1089 95.9328 70.2276 96.1002C69.2736 96.2248 68.4027 95.9579 68.1302 94.6724Z" fill="#79862F"/>
<path d="M75.8927 92.0384C75.4642 91.1016 75.4228 89.7561 76.706 89.2376C77.4845 88.9119 78.0943 89.1233 78.5032 89.5103L78.0307 90.0647C77.7247 89.8359 77.3909 89.7377 77.0594 89.8855C76.3386 90.1962 76.4483 91.0925 76.6712 91.7127C76.9668 92.3757 77.5662 93.0214 78.2292 92.7258C78.6184 92.563 78.7316 92.2869 78.8148 91.8954L79.5529 91.8885C79.5447 92.5688 79.2606 93.1359 78.5398 93.4466C77.2415 93.9073 76.3361 93.0329 75.8927 92.0384Z" fill="#79862F"/>
<path d="M85.7231 89.2981L85.0902 89.7093L83.0068 86.6749L81.9568 87.3794L81.5607 86.8041L84.2359 84.9991L84.632 85.5743L83.582 86.2788L85.7231 89.2981Z" fill="#79862F"/>
<path d="M92.5416 80.1894C91.6962 79.546 91.0344 78.4233 91.9066 77.2718C92.7787 76.1203 94.0411 76.4704 94.8865 77.1138C95.7319 77.7572 96.3936 78.8799 95.5215 80.0314C94.7071 81.1678 93.4447 80.8178 92.5416 80.1894ZM94.4291 77.7259C93.8747 77.2535 93.0189 77.0443 92.5037 77.6715C92.0035 78.3563 92.5024 79.0898 93.0417 79.5045C93.5811 79.9192 94.452 80.1861 94.9671 79.5589C95.4823 78.9318 94.9684 78.1406 94.4291 77.7259Z" fill="#79862F"/>
<path d="M95.3607 72.0584L96.6106 69.5141L97.2505 69.841L96.3124 71.6878L97.2433 72.1856L97.8544 70.9787L98.4943 71.3056L97.8832 72.5126L99.5844 73.3651L99.2725 74.0627L95.3607 72.0584Z" fill="#79862F"/>
</svg>
