<svg width="62" height="58" viewBox="0 0 62 58" fill="none" xmlns="http://www.w3.org/2000/svg">
<path d="M41.083 2.984C38.164 -0.0380012 33.292 0.455999 31 4.03C28.706 0.451999 23.833 -0.0350014 20.917 2.983C18.361 5.628 18.361 9.918 20.917 12.563L30.999 23L41.083 12.564C43.639 9.918 43.639 5.629 41.083 2.984Z" stroke="#79862E" stroke-width="2" stroke-miterlimit="10" stroke-linecap="square"/>
<path d="M49 39C52.3137 39 55 36.3137 55 33C55 29.6863 52.3137 27 49 27C45.6863 27 43 29.6863 43 33C43 36.3137 45.6863 39 49 39Z" stroke="#79862E" stroke-width="2" stroke-miterlimit="10" stroke-linecap="square"/>
<path d="M13 39C16.3137 39 19 36.3137 19 33C19 29.6863 16.3137 27 13 27C9.68629 27 7 29.6863 7 33C7 36.3137 9.68629 39 13 39Z" stroke="#79862E" stroke-width="2" stroke-miterlimit="10" stroke-linecap="square"/>
<path d="M25 57V51.035C25 49.615 24.255 48.309 23.033 47.586C21.088 46.435 17.716 45 13 45C8.223 45 4.873 46.426 2.948 47.575C1.736 48.299 1 49.601 1 51.013V57H25Z" stroke="#79862E" stroke-width="2" stroke-miterlimit="10" stroke-linecap="square"/>
<path d="M61 57V51.035C61 49.615 60.255 48.309 59.033 47.586C57.088 46.435 53.716 45 49 45C44.223 45 40.873 46.426 38.948 47.575C37.736 48.299 37 49.601 37 51.013V57H61Z" stroke="#79862E" stroke-width="2" stroke-miterlimit="10" stroke-linecap="square"/>
</svg>
