<svg width="161" height="144" viewBox="0 0 161 144" fill="none" xmlns="http://www.w3.org/2000/svg">
<path d="M21.2683 97.8275C21.436 99.4131 21.7167 100.806 22.1699 102.236L22.4018 102.502C22.5178 102.635 22.5773 102.864 22.6368 103.093C22.9816 103.166 23.4287 103.946 23.7171 104.115C24.294 104.454 24.8678 104.468 25.4019 104.329C25.8597 104.21 26.2214 104.034 26.5831 103.859C29.3042 102.419 31.1708 99.5711 32.5231 96.9388C33.9151 94.459 35.0187 91.8098 35.8537 89.0676C36.0032 88.7028 36.0873 87.4591 36.5649 87.4164C37.1952 87.3341 37.3263 89.0921 37.4056 89.3973C38.0645 94.4395 35.8375 99.6615 32.9682 103.666C32.0051 104.975 30.6834 106.785 29.0444 107.374C27.6709 107.731 25.9266 107.288 24.6036 106.899C22.0536 106.177 19.554 104.708 18.0601 102.409C16.9936 100.812 16.8594 98.7291 16.6322 96.9146C16.6887 96.8184 16.2981 95.9424 16.3912 95.6738C16.3347 95.77 16.5529 96.6093 16.5529 96.6093C16.5498 96.2843 16.4308 95.8265 16.4278 95.5014C16.3713 95.5975 16.2493 94.8147 16.2493 94.8147C16.2066 94.337 16.1838 93.9356 16.1609 93.5343C16.1518 92.5591 16.1626 91.6603 16.2298 90.6653C16.3643 88.6753 16.6712 86.722 16.7095 84.6755C16.8073 82.858 17.1539 81.0572 17.5767 79.2367C17.6867 78.7193 18.6591 74.3121 19.1368 74.2694L19.0101 75.0355C19.2497 74.0772 19.5657 73.099 19.8817 72.1208C19.7123 72.4092 19.5429 72.6976 19.5429 72.6976C19.6131 72.0277 20.158 70.99 20.4007 70.3567C20.5473 69.6669 20.8098 69.1099 21.0327 68.4003C21.5547 66.9613 22.2095 65.4063 22.904 64.0039C23.9006 62.1971 25.4056 59.5251 27.5223 58.8935C31.3543 57.6531 34.7144 61.1786 35.5672 64.4597L35.5871 64.536C36.0432 66.291 36.101 68.3939 35.2936 69.9886C34.5427 71.4872 32.7631 73.416 31.2202 74.0614C30.8585 74.2368 30.2114 74.5679 30.1291 73.9377C30.1093 73.8614 30.2222 73.6691 30.355 73.5531L30.5076 73.5135C30.793 73.3578 31.3869 69.3748 31.712 69.3718C31.712 69.3718 31.4387 70.8276 31.4417 71.1527C31.8844 69.4084 32.2508 67.684 32.425 65.8466C32.4723 64.7753 32.7228 62.9181 32.0834 62.0253C31.1557 60.9631 29.7149 62.3151 29.0709 62.9713L28.4833 63.5313L28.6924 63.3955C28.5031 63.6076 28.3139 63.8197 28.2009 64.012C28.3704 63.7236 28.6359 63.4916 28.9213 63.336C29.4127 62.7195 30.7009 61.4072 31.6226 61.8193C32.352 62.1185 32.3977 62.9212 32.3473 63.6674C32.3581 62.7686 32.1201 61.8529 31.1647 61.9383C30.2857 62.0038 29.7973 62.9454 29.1502 63.2765C27.3142 65.3014 26.174 68.123 25.2795 70.6364C24.2919 73.4183 23.4966 76.3132 22.8737 79.2447C22.2142 82.3487 21.9561 85.4298 21.6414 88.6071C21.3634 91.6119 21.0854 94.6167 21.3049 97.6551L21.3644 97.884C21.2286 97.6749 21.2286 97.6749 21.2683 97.8275L21.3248 97.7314C21.2485 97.7512 21.2485 97.7512 21.2683 97.8275ZM25.3424 67.1173C23.3689 70.8071 22.0118 74.9885 21.2286 79.1836C20.5721 82.6126 20.1644 86.0584 20.0054 89.521C20.1567 87.2823 20.5567 85.0604 20.9765 82.9148C21.7261 79.2172 22.5154 75.6722 23.5336 72.0677C24.0159 70.476 24.6113 68.6921 25.3424 67.1173ZM28.085 63.8792C27.1219 65.1885 26.5038 66.571 25.9054 68.0299C26.3374 67.1845 26.7296 66.1865 27.2577 65.3976C27.4073 65.0328 27.7263 64.3797 28.085 63.8792ZM32.2236 64.7585C32.1443 64.4533 32.2542 63.936 32.2115 63.4583C32.2344 63.8597 32.2374 64.1847 32.2404 64.5098C32.1839 64.6059 32.1839 64.6059 32.2236 64.7585Z" fill="#A9B090"/>
<path d="M62.6169 82.0302C62.3832 83.6386 61.9573 85.1341 61.5315 86.6297C60.9926 88.3174 60.4339 89.9289 59.7028 91.5038C59.1411 92.7902 58.2971 94.5573 56.9068 95.163C55.3837 95.8847 53.7295 94.8484 52.8186 93.5374C50.9402 91.0116 51.0061 87.8176 51.1314 84.8525C51.1314 84.8525 51.0124 84.3946 51.0094 84.0696C50.7301 84.8753 50.2813 85.9695 50.002 86.7752C49.6295 87.8495 49.486 88.8644 49.0937 89.8624C48.9075 90.3995 46.2456 96.1419 45.4933 95.4414C45.4933 95.4414 46.0442 95.0538 45.9481 94.9973C45.4368 95.5375 44.6936 95.8121 44.0435 95.8182C44.2159 95.8548 44.3121 95.9113 44.3121 95.9113C43.2835 96.3416 41.9117 94.8246 41.4844 94.121C40.7459 92.8467 40.4454 91.377 40.3173 89.9441C40.1176 86.9819 40.4887 83.7086 41.4565 80.8503C41.7557 80.1209 41.9785 79.4113 42.5463 78.775C42.8485 78.3706 43.1339 78.2149 43.5124 77.7907C44.0405 77.0018 44.5884 76.2892 45.6566 76.0115C48.0221 75.3967 49.6319 77.8294 50.642 79.5219C51.3899 77.6983 52.9544 75.2552 55.341 76.9157C56.6304 77.8025 56.1619 78.8203 55.9054 80.0274C55.426 81.9441 55.2748 84.1829 55.3494 86.037C55.386 85.8646 55.3602 85.1382 55.4929 85.0222C55.8546 84.8467 55.2371 96.5745 58.6103 89.181C59.6406 86.8767 60.442 84.6319 61.2235 82.3109C61.596 81.2365 61.8723 80.1057 62.2447 79.0314C62.4508 78.5706 63.0522 77.4367 63.4061 78.4852C63.5312 79.5931 62.7604 81.0153 62.6169 82.0302ZM49.4759 81.6171C49.3768 81.2355 47.6907 78.8227 47.9562 78.5907C48.0127 78.4946 48.771 79.8452 48.8672 79.9017C48.5559 79.3309 47.9471 77.6156 47.0315 77.8536C45.4291 78.2701 44.9618 81.487 44.8015 82.7505C44.3648 85.1449 44.1403 87.7285 44.3537 90.1168C44.3279 89.3904 44.8139 79.9777 45.7296 79.7397C45.0825 80.0708 44.4882 88.1269 44.5141 88.8533C44.5369 89.2546 44.4284 91.971 45.1746 92.0214C45.6721 92.0551 46.42 90.2315 46.6459 89.8469C47.2839 88.5406 47.806 87.1016 48.3478 85.7389L49.1126 83.6665C49.2621 83.3018 49.3919 82.8608 49.5415 82.4961C49.5751 81.9986 49.5751 81.9986 49.4759 81.6171ZM49.5492 81.2722L49.6682 81.73C49.7811 81.5377 49.7415 81.3851 49.5492 81.2722ZM51.2888 83.2638L51.159 83.7049C51.1224 83.8773 51.1483 84.6037 51.1483 84.6037L51.2888 83.2638Z" fill="#A9B090"/>
<path d="M78.3417 78.5948C77.6304 80.2459 77.0916 81.9337 76.188 83.4719C75.5866 84.6057 74.5335 86.5086 73.041 86.4078C72.7159 86.4108 70.7031 85.875 70.7199 85.6263L70.8924 85.6629L70.5078 85.437C70.8359 85.759 70.1828 85.44 70.1828 85.44C69.8943 85.2706 69.5663 84.9486 69.3343 84.683C68.9666 84.2084 68.7514 83.6941 68.6126 83.16C68.4738 82.6258 68.4113 82.0719 68.3487 81.5179C68.1474 80.4298 67.9659 79.418 67.9934 78.2704C68.0102 78.0216 68.3081 75.0932 68.7094 75.0703C68.7857 75.0505 68.6361 75.4152 68.7323 75.4717L69.062 73.9197C69.0056 74.0158 68.9689 74.1882 68.8926 74.2081C68.7965 74.1516 69.2056 72.9048 69.2224 72.6561C68.5081 73.9822 68.0623 75.4014 67.5205 76.7641C67.1282 77.7621 66.504 78.4946 66.2445 79.3767C65.7087 81.3895 64.8081 83.2527 64.5211 85.2824L64.193 84.9604C63.6313 86.2468 61.9969 85.2868 61.2645 84.6625C60.6083 84.0185 60.6023 83.3684 60.4604 82.5092C60.3384 81.7263 60.1401 80.9633 60.1508 80.0644C60.1982 78.9931 60.3219 77.902 60.4456 76.8109C60.493 75.7396 60.6167 74.6484 60.7206 73.481C60.7908 72.8111 61.0504 71.929 61.0245 71.2026C61.0382 70.6288 60.8063 70.3633 61.3176 69.8231C61.8487 69.3592 62.4591 69.2005 63.0894 69.1182C63.8921 69.0725 65.4838 69.5548 65.0182 70.8977C64.832 71.4349 64.3405 72.0514 64.078 72.6084C63.759 73.2615 63.8948 73.4706 63.8246 74.1405C63.8474 74.5419 63.5452 74.9463 63.4155 75.3873C63.2491 76.0007 63.275 76.7272 63.2047 77.3971C63.2276 77.7985 63.3069 78.1037 63.4061 78.4852C63.5876 79.497 63.4639 80.5881 63.6652 81.6762C63.682 81.4275 63.9079 81.0429 64.0041 81.0994C64.1002 81.1559 63.7644 82.0578 63.7644 82.0578L65.5167 77.2035C65.1244 78.2015 64.8054 78.8546 64.8054 78.8546C64.633 78.818 68.4519 70.0053 68.98 69.2163C70.0164 67.5622 71.8675 67.1625 73.0531 69.2167C74.4508 71.4601 72.3294 73.6407 71.641 75.6932C71.2883 76.8438 71.0517 78.1272 70.8517 79.2382C70.7051 79.9279 70.2991 81.4997 70.5004 82.5879C70.3982 81.8813 70.6944 80.8268 70.8043 80.3095C70.928 79.2183 71.244 78.2401 71.8285 77.3551C71.682 78.0448 71.4591 78.7544 71.2927 79.3679L71.4423 79.0032C71.5186 78.9834 71.4009 80.7246 71.4406 80.8772C71.3704 81.5471 71.3764 82.1972 71.4588 82.8275C71.4023 82.9237 71.6769 83.6669 71.6769 83.6669L71.7731 83.7233C71.7532 83.647 72.0584 83.5677 72.1912 83.4517C72.8185 83.0443 73.403 82.1593 73.8182 81.5626C74.7247 80.3495 75.6115 79.06 76.4219 77.7904C77.063 76.8092 77.9329 75.7685 78.3252 74.7704C78.5114 74.2333 78.9998 73.2917 79.5262 74.3768C80.0725 75.5382 78.6576 77.6166 78.3417 78.5948Z" fill="#A9B090"/>
<path d="M100.006 72.3118C99.7728 73.9202 99.3469 75.4158 98.921 76.9113C98.3821 78.5991 97.8235 80.2105 97.0923 81.7854C96.5306 83.0718 95.6866 84.8389 94.2963 85.4447C92.7732 86.1664 91.119 85.13 90.2081 83.8191C88.3297 81.2933 88.3956 78.0992 88.521 75.1341C88.521 75.1341 88.402 74.6762 88.399 74.3512C88.1196 75.1569 87.6709 76.2511 87.3915 77.0568C87.0191 78.1311 86.8755 79.146 86.4833 80.144C86.297 80.6811 83.6351 86.4235 82.8828 85.723C82.8828 85.723 83.4337 85.3354 83.3376 85.2789C82.8263 85.8191 82.0831 86.0938 81.433 86.0998C81.6055 86.1365 81.7016 86.1929 81.7016 86.1929C80.673 86.6232 79.3012 85.1062 78.8739 84.4026C78.1354 83.1283 77.8349 81.6587 77.7068 80.2257C77.5072 77.2636 77.8783 73.9902 78.846 71.1319C79.1452 70.4025 79.3681 69.6929 79.9358 69.0566C80.238 68.6522 80.5234 68.4966 80.9019 68.0723C81.43 67.2834 81.9779 66.5708 83.0462 66.2931C85.4116 65.6783 87.0214 68.111 88.0315 69.8035C88.7795 67.9799 90.3439 65.5368 92.7305 67.1973C94.02 68.0841 93.5514 69.1019 93.2949 70.309C92.8156 72.2257 92.6643 74.4645 92.7389 76.3186C92.7756 76.1462 92.7497 75.4198 92.8825 75.3038C93.2441 75.1284 92.6267 86.8561 95.9999 79.4626C97.0302 77.1583 97.8315 74.9136 98.6131 72.5925C98.9855 71.5182 99.2618 70.3874 99.6343 69.313C99.8403 68.8522 100.442 67.7184 100.796 68.7668C100.921 69.8747 100.15 71.297 100.006 72.3118ZM86.8654 71.8987C86.7663 71.5172 85.0802 69.1043 85.3457 68.8724C85.4022 68.7762 86.1606 70.1269 86.2567 70.1833C85.9454 69.6126 85.3367 67.8972 84.421 68.1352C82.8186 68.5517 82.3514 71.7686 82.191 73.0322C81.7544 75.4265 81.5298 78.0101 81.7433 80.3985C81.7174 79.672 82.2034 70.2593 83.1191 70.0213C82.472 70.3524 81.8777 78.4085 81.9036 79.1349C81.9265 79.5362 81.8179 82.2526 82.5641 82.3031C83.0616 82.3367 83.8096 80.5131 84.0354 80.1285C84.6734 78.8223 85.1955 77.3832 85.7373 76.0205L86.5021 73.9482C86.6517 73.5834 86.7814 73.1424 86.931 72.7777C86.9646 72.2802 86.9646 72.2802 86.8654 71.8987ZM86.9387 71.5538L87.0577 72.0116C87.1707 71.8193 87.131 71.6667 86.9387 71.5538ZM88.6783 73.5455L88.5485 73.9865C88.4921 74.0826 88.5179 74.809 88.5179 74.809L88.6783 73.5455Z" fill="#A9B090"/>
<path d="M124.039 65.7395C123.325 67.0656 122.63 68.468 122.012 69.8506C120.663 72.808 119.851 75.9516 118.521 78.9853C117.491 81.2896 115.809 85.474 112.616 83.5341C110.041 82.0856 109.563 78.0552 109.138 75.4777C108.065 77.3043 106.896 79.0744 105.61 80.7118C104.853 81.5602 103.984 82.6009 102.76 82.5932C98.8223 82.802 97.988 77.3981 98.4018 74.6024C98.6156 72.9176 98.4479 71.332 98.9669 69.5679C99.5027 67.5551 100.361 65.2142 101.994 63.9751C104.045 62.4645 106.759 64.4471 108.453 65.636C108.507 61.1417 109.058 56.6811 109.838 52.1609C109.875 51.9885 109.9 50.5159 110.202 50.1115C110.013 50.3236 109.982 51.1461 110.005 51.5475C110.095 50.9538 110.185 50.3602 110.351 49.7468L110.275 49.7666C110.368 49.498 110.582 47.8132 110.695 47.621C110.974 46.8152 111.254 46.0095 111.553 45.2801C112.191 43.9738 113.001 42.7042 114.179 41.9092C115.756 40.7663 118.526 40.4537 119.728 42.2591C121.414 44.672 120.416 48.3527 119.694 50.9027C119.212 52.4944 118.729 54.086 118.151 55.6212L117.346 57.5409L117.007 58.1178C117.064 58.0216 117.024 57.869 117.024 57.869L116.782 58.5023L116.858 58.4825L116.782 58.5023L116.688 58.7709L115.362 62.1297C115.512 61.765 115.774 61.208 115.87 61.2644C115.87 61.2644 113.68 66.314 113.474 66.7749C112.65 68.6183 113.132 71.0997 113.399 73.0668C113.447 74.1946 113.915 81.3229 115.67 80.8668C116.128 80.7478 116.444 79.7696 116.614 79.4812C117.102 78.5396 117.571 77.5218 117.963 76.5238C118.804 74.4316 119.588 72.4355 120.353 70.3632C121.138 68.3672 121.999 66.3513 123.052 64.4484C123.297 64.1402 124.74 60.9142 125.462 62.4372L125.481 62.5135C125.872 63.3895 124.584 64.7018 124.039 65.7395ZM108.473 69.7854C108.483 68.8865 108.571 67.9679 107.914 67.3238C107.298 66.8324 106.698 66.0922 105.969 65.793C105.68 65.6236 105.239 65.4938 104.974 65.7258C104.897 65.7456 104.897 65.7456 104.841 65.8417L105.03 65.6296C104.058 65.9638 103.731 67.8408 103.455 68.9716C102.902 71.2332 102.542 73.6077 102.507 75.9792C102.476 76.8018 102.275 79.7867 103.462 79.9669C104.152 80.1135 104.869 79.1124 105.341 78.4196C104.869 79.1124 104.205 79.6923 103.804 79.7151C102.181 80.0553 102.513 76.6293 102.78 74.5234C102.589 76.6095 102.391 79.9195 103.804 79.7151C104.892 79.5138 106.131 77.0737 106.736 76.2649C107.32 75.3799 107.885 74.4185 108.45 73.4571C109.071 72.3996 108.813 71.4076 108.668 70.2234C108.668 70.2234 108.648 70.1471 108.685 69.9746L108.625 69.7457L108.473 69.7854ZM105.566 78.0351C106.171 77.2263 106.775 76.4175 107.227 75.6484C107.642 75.0518 108.814 73.6067 108.808 72.9566C108.037 74.3788 107.114 75.8407 106.227 77.1302L105.566 78.0351ZM104.369 66.5345C104.446 66.5147 104.539 66.2461 104.672 66.1301C104.539 66.2461 104.446 66.5147 104.369 66.5345ZM106.274 65.7137C106.178 65.6572 106.005 65.6205 105.909 65.5641L106.274 65.7137ZM110.451 60.4735C110.474 60.8748 110.079 61.5478 110.082 61.8729C110.012 62.5428 110.475 63.0739 110.213 63.6309C110.289 63.6111 110.269 63.5348 110.269 63.5348C110.382 63.3425 110.41 62.1949 110.407 61.8698C110.424 61.6211 110.55 60.855 110.451 60.4735ZM110.34 54.7187C110.27 55.3886 110.067 56.1745 109.977 56.7682C109.85 57.5342 109.876 58.2606 109.846 59.0832C110.012 58.4697 110.102 57.8761 110.116 57.3023C110.146 56.4797 110.31 55.5412 110.34 54.7187ZM113.383 57.0233L113.29 57.2919C113.273 57.5406 113.293 57.6169 113.273 57.5406C113.122 59.7793 112.971 62.0181 112.896 64.237C112.952 64.1408 112.989 63.9684 113.045 63.8723C112.896 64.237 112.746 64.6017 112.749 64.9267L112.919 64.6383L113.105 64.1012L114.714 60.2617L114.039 61.7404L113.248 63.0863C114.598 60.1289 115.735 56.9823 116.719 53.8753C117.574 51.2093 118.971 47.1806 118.065 44.3207C117.946 43.8629 117.711 43.2722 117.193 43.1623C115.966 42.8295 115.244 45.3795 114.965 46.1853C113.944 49.4647 113.593 52.8144 113.241 56.1641L113.261 56.2404C113.261 56.2404 113.205 56.3365 113.244 56.4892L113.264 56.5655C113.208 56.6616 113.227 56.7379 113.247 56.8142C113.363 56.947 113.363 56.947 113.383 57.0233ZM113.29 57.2919C113.31 57.3682 113.273 57.5406 113.273 57.5406L113.383 57.0233L113.29 57.2919ZM115.286 62.1495C115.229 62.2456 115.229 62.2456 115.249 62.3219C115.249 62.3219 115.306 62.2258 115.286 62.1495ZM115.322 61.9771L115.266 62.0732C115.286 62.1495 115.342 62.0534 115.322 61.9771Z" fill="#A9B090"/>
<path d="M145.866 60.3927C145.632 62.0012 145.206 63.4967 144.78 64.9922C144.241 66.68 143.683 68.2915 142.952 69.8663C142.39 71.1527 141.546 72.9199 140.155 73.5256C138.632 74.2473 136.978 73.211 136.067 71.9C134.189 69.3742 134.255 66.1801 134.38 63.215C134.38 63.215 134.261 62.7572 134.258 62.4321C133.979 63.2379 133.53 64.332 133.251 65.1378C132.878 66.2121 132.735 67.2269 132.342 68.2249C132.156 68.7621 129.494 74.5045 128.742 73.8039C128.742 73.8039 129.293 73.4163 129.197 73.3599C128.686 73.9001 127.942 74.1747 127.292 74.1807C127.465 74.2174 127.561 74.2739 127.561 74.2739C126.532 74.7041 125.16 73.1871 124.733 72.4835C123.995 71.2092 123.694 69.7396 123.566 68.3066C123.366 65.3445 123.737 62.0711 124.705 59.2129C125.004 58.4834 125.227 57.7738 125.795 57.1375C126.097 56.7331 126.383 56.5775 126.761 56.1533C127.289 55.3643 127.837 54.6517 128.905 54.3741C131.271 53.7592 132.881 56.1919 133.891 57.8844C134.639 56.0608 136.203 53.6177 138.59 55.2783C139.879 56.165 139.411 57.1829 139.154 58.39C138.675 60.3067 138.523 62.5454 138.598 64.3996C138.635 64.2271 138.609 63.5007 138.742 63.3848C139.103 63.2093 138.486 74.9371 141.859 67.5435C142.889 65.2393 143.691 62.9945 144.472 60.6734C144.845 59.5991 145.121 58.4683 145.493 57.394C145.7 56.9331 146.301 55.7993 146.655 56.8477C146.78 57.9557 146.009 59.3779 145.866 60.3927ZM132.725 59.9796C132.625 59.5981 130.939 57.1852 131.205 56.9533C131.261 56.8572 132.02 58.2078 132.116 58.2643C131.805 57.6935 131.196 55.9781 130.28 56.2161C128.678 56.6326 128.211 59.8495 128.05 61.1131C127.614 63.5075 127.389 66.0911 127.602 68.4794C127.577 67.753 128.063 58.3402 128.978 58.1022C128.331 58.4333 127.737 66.4894 127.763 67.2158C127.786 67.6172 127.677 70.3336 128.423 70.384C128.921 70.4176 129.669 68.594 129.895 68.2095C130.533 66.9032 131.055 65.4642 131.597 64.1014L132.361 62.0291C132.511 61.6644 132.641 61.2233 132.79 60.8586C132.824 60.3611 132.824 60.3611 132.725 59.9796ZM132.798 59.6347L132.917 60.0926C133.03 59.9003 132.99 59.7477 132.798 59.6347ZM134.537 61.6264L134.388 61.9911C134.351 62.1635 134.377 62.89 134.377 62.89L134.537 61.6264Z" fill="#A9B090"/>
<path d="M34.8725 39.2242L36.327 37.2984C37.1771 36.1814 38.2682 36.3051 38.961 36.7767C39.6538 37.2483 40.0841 38.2769 39.234 39.394L38.4037 40.5873L40.1372 41.9288L39.5328 42.7376L34.8725 39.2242ZM38.3765 37.6618C38.0682 37.4161 37.5509 37.3062 37.1922 37.8067L36.2856 39.0198L37.6911 40.0394L38.5976 38.8262C38.88 38.3455 38.6847 37.9075 38.3765 37.6618Z" fill="#A9B090"/>
<path d="M40.8291 32.0551L42.7246 30.2591C43.767 29.255 44.6689 29.5908 45.325 30.2349C45.7691 30.6897 46.0636 31.5092 45.6118 32.2783L48.1251 33.1728L47.3483 33.9449L45.0074 33.0871L44.1542 33.879L45.7183 35.509L44.998 36.185L40.8291 32.0551ZM44.5206 32.1546C44.9755 31.7106 44.8565 31.2527 44.6245 30.9872C44.3926 30.7216 43.9317 30.5156 43.4006 30.9794L42.2254 32.0995L43.3455 33.2746L44.5206 32.1546Z" fill="#A9B090"/>
<path d="M49.6095 28.2254C48.8145 27.0472 48.5308 25.3288 50.0707 24.3584C51.6671 23.2918 53.0526 24.235 53.8476 25.4132C54.6426 26.5914 54.9263 28.3098 53.3864 29.2802C51.8664 30.327 50.4045 29.4036 49.6095 28.2254ZM53.0113 25.9564C52.4879 25.1964 51.5632 24.4592 50.5941 25.1184C49.625 25.7776 49.9988 26.9023 50.4458 27.6822C50.9692 28.4422 51.894 29.1794 52.8631 28.5202C53.852 27.9373 53.5347 26.7164 53.0113 25.9564Z" fill="#A9B090"/>
<path d="M58.6518 19.7656C60.4801 18.9645 61.8092 20.0039 62.3951 21.3179C62.9612 22.5556 62.9198 24.277 60.9389 25.1177L59.3197 25.7829L57.0326 20.4308L58.6518 19.7656ZM61.3665 21.7481C60.9759 20.8722 60.1275 20.1152 59.1752 20.5256L58.2992 20.9162L59.8051 24.5163L60.6246 24.2218C61.8058 23.7519 61.7571 22.6241 61.3665 21.7481Z" fill="#A9B090"/>
<path d="M67.0161 20.606L66.1801 17.0761L67.172 16.8183L68.008 20.3481C68.2659 21.3401 68.803 21.5263 69.5859 21.4043C70.2726 21.2258 70.7473 20.8581 70.4696 19.7898L69.6336 16.2599L70.6256 16.0021L71.4616 19.532C71.8216 21.2305 70.9685 22.0225 69.8239 22.32C68.5832 22.561 67.3761 22.3045 67.0161 20.606Z" fill="#A9B090"/>
<path d="M75.9242 18.2091C75.8159 16.8524 76.3548 15.1646 78.2089 15.09C79.3367 15.0413 80.0493 15.5892 80.2843 16.1798L79.4281 16.6467C79.0802 16.2484 78.772 16.0026 78.2943 16.0453C77.2429 16.0742 76.9864 17.2813 77.0519 18.1604C77.1373 19.1157 77.5676 20.1443 78.5427 20.1352C79.0204 20.0925 79.3424 19.7644 79.6248 19.2837L80.603 19.5997C80.3236 20.4055 79.6597 20.9853 78.6281 21.0905C76.7739 21.1652 76.0522 19.6421 75.9242 18.2091Z" fill="#A9B090"/>
<path d="M86.9466 21.1274L85.9516 21.0602L86.4037 16.218L84.7388 16.0805L84.8259 15.1618L89.0942 15.6002L89.0072 16.5188L87.3422 16.3814L86.9466 21.1274Z" fill="#A9B090"/>
<path d="M98.2241 20.6402C98.766 19.2775 99.9213 18.0811 101.649 18.7726C103.376 19.464 103.487 21.1458 102.946 22.5085C102.404 23.8712 101.248 25.0676 99.521 24.3761C97.7935 23.6847 97.6823 22.0029 98.2241 20.6402ZM102.024 22.0964C102.36 21.1945 102.387 20.0469 101.389 19.6546C100.315 19.2822 99.5778 20.2069 99.2221 21.0325C98.8863 21.9344 98.8588 23.082 99.8568 23.4742C100.855 23.8665 101.668 22.922 102.024 22.0964Z" fill="#A9B090"/>
<path d="M108.718 22.1496L111.91 24.0894L111.458 24.8586L109.055 23.4467L108.321 24.6965L109.859 25.6001L109.407 26.3692L107.869 25.4656L106.57 27.6768L105.705 27.1685L108.718 22.1496Z" fill="#A9B090"/>
<path d="M50.6556 111.858L52.6379 113.216C53.8312 114.046 53.6877 115.061 53.2359 115.83C52.7643 116.523 51.7555 117.029 50.6385 116.179L49.4452 115.349L48.1998 117.139L47.391 116.535L50.6556 111.858ZM52.4271 115.226C52.6728 114.917 52.7828 114.4 52.2059 114.061L51.0126 113.231L49.9931 114.636L51.1864 115.467C51.6869 115.825 52.2012 115.61 52.4271 115.226Z" fill="#A9B090"/>
<path d="M59.08 116.999L61.4605 118.01C62.747 118.572 62.8324 119.527 62.4965 120.429C62.2539 121.062 61.5701 121.566 60.7278 121.459L60.8481 124.116L59.8302 123.647L59.7496 121.143L58.6554 120.694L57.7381 122.806L56.8164 122.394L59.08 116.999ZM60.3738 120.41C60.9308 120.673 61.3489 120.401 61.4985 120.036C61.6481 119.672 61.6817 119.174 61.0484 118.932L59.5896 118.333L58.9149 119.812L60.3738 120.41Z" fill="#A9B090"/>
<path d="M67.7446 123.382C68.0378 122.003 69.0573 120.597 70.858 120.944C72.6786 121.367 73.0188 122.989 72.7257 124.369C72.4325 125.748 71.413 127.154 69.6123 126.807C67.8115 126.46 67.4515 124.762 67.7446 123.382ZM71.7871 124.205C71.9505 123.267 71.8255 122.159 70.6947 121.882C69.5837 121.682 68.9625 122.74 68.7793 123.602C68.6159 124.541 68.741 125.649 69.8718 125.925C70.9064 126.145 71.6039 125.067 71.7871 124.205Z" fill="#A9B090"/>
<path d="M80.8501 122.094C82.8767 122.056 83.6747 123.559 83.6502 125.032C83.6623 126.332 82.9312 127.907 80.8283 127.965L79.0306 127.943L78.9959 122.169L80.8501 122.094ZM82.5987 125.061C82.5897 124.086 82.1594 123.057 81.0316 123.106L80.0565 123.115L80.0165 127.035L80.9153 127.046C82.1957 126.958 82.588 125.96 82.5987 125.061Z" fill="#A9B090"/>
<path d="M90.0179 125.087L89.278 121.614L90.2898 121.433L91.0297 124.906C91.2112 125.918 91.8445 126.16 92.5312 125.982C93.218 125.803 93.6926 125.436 93.5111 124.424L92.7712 120.95L93.783 120.769L94.5229 124.242C94.8829 125.941 93.9535 126.753 92.7891 126.974C91.5285 127.139 90.3779 126.786 90.0179 125.087Z" fill="#A9B090"/>
<path d="M100.274 121.607C99.7082 120.37 99.6534 118.592 101.349 117.907C102.378 117.476 103.183 117.756 103.723 118.267L103.099 118.999C102.695 118.697 102.254 118.567 101.816 118.763C100.864 119.173 101.008 120.357 101.303 121.177C101.693 122.053 102.485 122.906 103.361 122.515C103.876 122.3 104.025 121.936 104.135 121.418L105.11 121.409C105.1 122.308 104.724 123.057 103.772 123.468C102.057 124.077 100.86 122.921 100.274 121.607Z" fill="#A9B090"/>
<path d="M113.263 117.986L112.427 118.53L109.674 114.52L108.287 115.451L107.763 114.691L111.298 112.306L111.821 113.066L110.434 113.997L113.263 117.986Z" fill="#A9B090"/>
<path d="M122.272 105.952C121.155 105.102 120.281 103.618 121.433 102.097C122.585 100.575 124.253 101.038 125.37 101.888C126.487 102.738 127.362 104.222 126.209 105.743C125.133 107.244 123.465 106.782 122.272 105.952ZM124.766 102.697C124.034 102.073 122.903 101.796 122.222 102.625C121.561 103.53 122.22 104.499 122.933 105.047C123.646 105.595 124.796 105.947 125.477 105.119C126.158 104.29 125.479 103.245 124.766 102.697Z" fill="#A9B090"/>
<path d="M125.996 95.2084L127.648 91.8466L128.493 92.2786L127.254 94.7186L128.484 95.3765L129.291 93.7818L130.137 94.2137L129.329 95.8084L131.577 96.9348L131.165 97.8566L125.996 95.2084Z" fill="#A9B090"/>
</svg>
