<svg width="122" height="109" viewBox="0 0 122 109" fill="none" xmlns="http://www.w3.org/2000/svg">
<path d="M16.0969 74.0412C16.2239 75.2412 16.4363 76.2958 16.7792 77.378L16.9548 77.579C17.0426 77.6795 17.0876 77.8528 17.1326 78.026C17.3936 78.0815 17.732 78.6717 17.9503 78.7999C18.3869 79.0564 18.8212 79.0668 19.2254 78.9617C19.5719 78.8717 19.8457 78.7389 20.1194 78.6061C22.1789 77.5159 23.5916 75.3608 24.6151 73.3685C25.6686 71.4917 26.5039 69.4867 27.1358 67.4112C27.249 67.1351 27.3126 66.1938 27.6742 66.1615C28.1512 66.0992 28.2504 67.4297 28.3104 67.6608C28.8091 71.4769 27.1236 75.4292 24.952 78.4598C24.2231 79.4507 23.2227 80.8205 21.9822 81.2662C20.9427 81.5364 19.6226 81.2013 18.6212 80.9067C16.6912 80.3602 14.7994 79.249 13.6688 77.5083C12.8616 76.3001 12.76 74.7235 12.5881 73.3502C12.6308 73.2774 12.3352 72.6144 12.4056 72.4111C12.3629 72.4839 12.528 73.1192 12.528 73.1192C12.5257 72.8732 12.4357 72.5266 12.4334 72.2806C12.3906 72.3534 12.2983 71.7609 12.2983 71.7609C12.266 71.3993 12.2487 71.0956 12.2314 70.7918C12.2245 70.0538 12.2326 69.3735 12.2835 68.6204C12.3853 67.1143 12.6176 65.6359 12.6466 64.087C12.7206 62.7114 12.9829 61.3486 13.3029 59.9707C13.3861 59.5791 14.1221 56.2435 14.4837 56.2112L14.3878 56.791C14.5692 56.0657 14.8083 55.3254 15.0474 54.585C14.9192 54.8033 14.791 55.0216 14.791 55.0216C14.8442 54.5145 15.2566 53.7292 15.4403 53.2499C15.5512 52.7278 15.7499 52.3062 15.9185 51.7692C16.3136 50.68 16.8092 49.5031 17.3349 48.4417C18.0892 47.0743 19.2282 45.0519 20.8302 44.5739C23.7305 43.6351 26.2736 46.3034 26.9191 48.7867L26.9341 48.8445C27.2793 50.1727 27.3231 51.7643 26.712 52.9713C26.1436 54.1054 24.7968 55.5653 23.629 56.0537C23.3553 56.1865 22.8655 56.4371 22.8032 55.9601C22.7882 55.9024 22.8737 55.7568 22.9742 55.6691L23.0897 55.639C23.3057 55.5212 23.7552 52.5067 24.0012 52.5044C24.0012 52.5044 23.7944 53.6063 23.7967 53.8523C24.1317 52.5322 24.409 51.227 24.5408 49.8364C24.5767 49.0256 24.7662 47.62 24.2823 46.9443C23.5802 46.1403 22.4897 47.1636 22.0023 47.6602L21.5576 48.084L21.7158 47.9812C21.5726 48.1418 21.4294 48.3023 21.3439 48.4478C21.4721 48.2295 21.6731 48.054 21.8891 47.9362C22.261 47.4696 23.2359 46.4764 23.9335 46.7883C24.4856 47.0147 24.5202 47.6223 24.482 48.1871C24.4902 47.5068 24.3101 46.8137 23.587 46.8784C22.9217 46.928 22.5521 47.6406 22.0623 47.8912C20.6727 49.4238 19.8098 51.5593 19.1328 53.4615C18.3853 55.567 17.7834 57.758 17.312 59.9768C16.8128 62.326 16.6174 64.6579 16.3793 67.0626C16.1689 69.3368 15.9585 71.611 16.1246 73.9106L16.1697 74.0839C16.0669 73.9257 16.0669 73.9257 16.0969 74.0412L16.1396 73.9684C16.0819 73.9834 16.0819 73.9834 16.0969 74.0412ZM19.1804 50.7981C17.6867 53.5908 16.6597 56.7554 16.0669 59.9305C15.57 62.5257 15.2614 65.1337 15.1411 67.7544C15.2556 66.06 15.5583 64.3783 15.8761 62.7544C16.4434 59.9559 17.0408 57.2729 17.8114 54.5448C18.1765 53.3402 18.627 51.99 19.1804 50.7981ZM21.2561 48.3473C20.5272 49.3383 20.0594 50.3847 19.6065 51.4888C19.9334 50.849 20.2303 50.0936 20.63 49.4965C20.7432 49.2205 20.9846 48.7262 21.2561 48.3473ZM24.3884 49.0129C24.3284 48.7819 24.4116 48.3903 24.3793 48.0288C24.3966 48.3326 24.3989 48.5786 24.4011 48.8246C24.3584 48.8974 24.3584 48.8974 24.3884 49.0129Z" fill="#79862F"/>
<path d="M47.3915 62.0848C47.2147 63.3022 46.8924 64.4341 46.57 65.5659C46.1622 66.8434 45.7394 68.063 45.186 69.2549C44.7609 70.2286 44.1221 71.566 43.0698 72.0244C41.9171 72.5707 40.6651 71.7863 39.9757 70.7941C38.554 68.8825 38.6039 66.465 38.6988 64.2209C38.6988 64.2209 38.6087 63.8744 38.6064 63.6284C38.395 64.2382 38.0554 65.0663 37.844 65.6761C37.5621 66.4892 37.4534 67.2573 37.1565 68.0126C37.0156 68.4192 35.0009 72.7653 34.4315 72.2351C34.4315 72.2351 34.8485 71.9418 34.7758 71.899C34.3888 72.3079 33.8263 72.5157 33.3343 72.5203C33.4648 72.548 33.5375 72.5908 33.5375 72.5908C32.759 72.9164 31.7208 71.7683 31.3974 71.2358C30.8385 70.2713 30.611 69.159 30.5141 68.0745C30.363 65.8326 30.6439 63.3551 31.3763 61.1919C31.6027 60.6398 31.7714 60.1027 32.2011 59.6211C32.4298 59.3151 32.6458 59.1973 32.9323 58.8762C33.332 58.2791 33.7467 57.7397 34.5552 57.5296C36.3455 57.0643 37.5639 58.9055 38.3284 60.1864C38.8944 58.8062 40.0785 56.9572 41.8848 58.214C42.8607 58.8851 42.5061 59.6555 42.3119 60.569C41.9491 62.0197 41.8347 63.7141 41.8911 65.1174C41.9189 64.9869 41.8993 64.4371 41.9998 64.3494C42.2735 64.2166 41.8062 73.0927 44.3592 67.4969C45.139 65.7529 45.7455 64.054 46.337 62.2973C46.6189 61.4842 46.828 60.6283 47.1099 59.8152C47.2658 59.4664 47.721 58.6083 47.9889 59.4018C48.0835 60.2403 47.5002 61.3168 47.3915 62.0848ZM37.4458 61.7722C37.3708 61.4834 36.0946 59.6572 36.2956 59.4817C36.3383 59.4089 36.9123 60.4312 36.9851 60.4739C36.7495 60.0419 36.2887 58.7436 35.5957 58.9238C34.3829 59.239 34.0293 61.6737 33.908 62.63C33.5775 64.4422 33.4075 66.3976 33.5691 68.2052C33.5495 67.6554 33.9174 60.5314 34.6104 60.3513C34.1206 60.6019 33.6708 66.6991 33.6904 67.2489C33.7077 67.5527 33.6256 69.6086 34.1904 69.6467C34.5669 69.6722 35.133 68.292 35.3039 68.0009C35.7868 67.0123 36.1819 65.9231 36.592 64.8918L37.1708 63.3233C37.284 63.0473 37.3822 62.7135 37.4954 62.4375C37.5209 62.0609 37.5209 62.0609 37.4458 61.7722ZM37.5013 61.5111L37.5913 61.8576C37.6768 61.7121 37.6468 61.5966 37.5013 61.5111ZM38.8179 63.0185L38.7196 63.3523C38.6919 63.4828 38.7115 64.0326 38.7115 64.0326L38.8179 63.0185Z" fill="#79862F"/>
<path d="M59.293 59.4844C58.7547 60.7341 58.3469 62.0115 57.663 63.1757C57.2079 64.0338 56.4108 65.4741 55.2812 65.3977C55.0352 65.4 53.5118 64.9945 53.5245 64.8062L53.655 64.834L53.3639 64.663C53.6123 64.9067 53.1179 64.6653 53.1179 64.6653C52.8996 64.5371 52.6513 64.2933 52.4758 64.0923C52.1975 63.7331 52.0346 63.3439 51.9296 62.9396C51.8245 62.5353 51.7772 62.1161 51.7299 61.6968C51.5775 60.8733 51.4401 60.1075 51.4609 59.2389C51.4737 59.0507 51.6991 56.8342 52.0028 56.8169C52.0606 56.8019 51.9474 57.078 52.0201 57.1207L52.2697 55.9461C52.227 56.0188 52.1992 56.1494 52.1415 56.1644C52.0687 56.1216 52.3784 55.178 52.3911 54.9897C51.8504 55.9934 51.5131 57.0675 51.103 58.0989C50.8061 58.8543 50.3336 59.4086 50.1372 60.0762C49.7317 61.5996 49.0501 63.0098 48.8329 64.546L48.5846 64.3022C48.1594 65.2759 46.9225 64.5493 46.3681 64.0768C45.8715 63.5894 45.8669 63.0973 45.7596 62.4471C45.6672 61.8545 45.5171 61.277 45.5253 60.5967C45.5611 59.7859 45.6548 58.9601 45.7484 58.1343C45.7843 57.3235 45.8779 56.4976 45.9565 55.6141C46.0097 55.107 46.2061 54.4395 46.1865 53.8897C46.1969 53.4554 46.0214 53.2544 46.4083 52.8456C46.8103 52.4945 47.2723 52.3744 47.7493 52.3121C48.3569 52.2775 49.5615 52.6425 49.2091 53.6589C49.0682 54.0655 48.6962 54.5321 48.4976 54.9536C48.2561 55.4479 48.3589 55.6062 48.3057 56.1132C48.323 56.417 48.0943 56.7231 47.9961 57.0568C47.8702 57.5211 47.8898 58.0709 47.8366 58.578C47.8539 58.8817 47.9139 59.1127 47.989 59.4015C48.1264 60.1673 48.0327 60.9931 48.1851 61.8166C48.1979 61.6284 48.3688 61.3373 48.4416 61.3801C48.5143 61.4228 48.2602 62.1054 48.2602 62.1054L49.5864 58.4314C49.2895 59.1868 49.0481 59.6811 49.0481 59.6811C48.9176 59.6534 51.808 52.9835 52.2076 52.3864C52.992 51.1344 54.393 50.8319 55.2903 52.3866C56.3482 54.0845 54.7426 55.7349 54.2216 57.2884C53.9547 58.1592 53.7756 59.1306 53.6242 59.9714C53.5133 60.4934 53.206 61.6831 53.3583 62.5066C53.281 61.9718 53.5051 61.1737 53.5883 60.7822C53.682 59.9564 53.9211 59.216 54.3635 58.5462C54.2526 59.0682 54.0839 59.6053 53.958 60.0696L54.0712 59.7935C54.129 59.7785 54.0399 61.0964 54.0699 61.2119C54.0168 61.7189 54.0213 62.211 54.0837 62.688C54.0409 62.7608 54.2488 63.3233 54.2488 63.3233L54.3216 63.366C54.3065 63.3082 54.5375 63.2482 54.638 63.1604C55.1128 62.8521 55.5552 62.1822 55.8694 61.7306C56.5555 60.8125 57.2267 59.8365 57.8401 58.8756C58.3252 58.133 58.9836 57.3453 59.2805 56.59C59.4215 56.1834 59.7911 55.4708 60.1896 56.2921C60.603 57.1711 59.5322 58.7441 59.293 59.4844Z" fill="#79862F"/>
<path d="M75.6898 54.7299C75.513 55.9472 75.1907 57.0791 74.8684 58.211C74.4605 59.4884 74.0377 60.708 73.4844 61.8999C73.0592 62.8736 72.4204 64.211 71.3682 64.6695C70.2154 65.2157 68.9635 64.4313 68.274 63.4391C66.8524 61.5275 66.9022 59.1101 66.9971 56.8659C66.9971 56.8659 66.907 56.5194 66.9048 56.2734C66.6933 56.8832 66.3537 57.7113 66.1423 58.3211C65.8604 59.1342 65.7518 59.9023 65.4549 60.6577C65.3139 61.0642 63.2992 65.4103 62.7299 64.8801C62.7299 64.8801 63.1468 64.5868 63.0741 64.544C62.6871 64.9529 62.1246 65.1607 61.6326 65.1653C61.7631 65.1931 61.8359 65.2358 61.8359 65.2358C61.0574 65.5614 60.0191 64.4133 59.6957 63.8808C59.1368 62.9163 58.9094 61.804 58.8124 60.7195C58.6613 58.4776 58.9422 56.0001 59.6746 53.8369C59.9011 53.2848 60.0697 52.7477 60.4994 52.2661C60.7281 51.9601 60.9441 51.8423 61.2306 51.5212C61.6303 50.9241 62.045 50.3848 62.8535 50.1746C64.6438 49.7093 65.8622 51.5505 66.6267 52.8314C67.1927 51.4512 68.3768 49.6022 70.1831 50.859C71.159 51.5301 70.8044 52.3005 70.6103 53.2141C70.2475 54.6647 70.133 56.3591 70.1895 57.7624C70.2172 57.6319 70.1976 57.0821 70.2981 56.9944C70.5718 56.8616 70.1045 65.7377 72.6575 60.142C73.4373 58.398 74.0438 56.699 74.6353 54.9423C74.9172 54.1292 75.1263 53.2733 75.4082 52.4602C75.5642 52.1114 76.0193 51.2533 76.2872 52.0468C76.3819 52.8854 75.7985 53.9618 75.6898 54.7299ZM65.7441 54.4172C65.6691 54.1284 64.3929 52.3023 64.5939 52.1267C64.6367 52.054 65.2106 53.0762 65.2834 53.1189C65.0478 52.6869 64.5871 51.3887 63.894 51.5688C62.6813 51.884 62.3276 54.3187 62.2063 55.2751C61.8758 57.0872 61.7059 59.0426 61.8674 60.8502C61.8478 60.3005 62.2157 53.1764 62.9087 52.9963C62.419 53.2469 61.9692 59.3441 61.9888 59.8939C62.0061 60.1977 61.9239 62.2536 62.4887 62.2917C62.8652 62.3172 63.4313 60.937 63.6022 60.646C64.0851 59.6573 64.4802 58.5682 64.8903 57.5368L65.4691 55.9683C65.5823 55.6923 65.6805 55.3585 65.7937 55.0825C65.8192 54.7059 65.8192 54.7059 65.7441 54.4172ZM65.7996 54.1562L65.8897 54.5027C65.9751 54.3571 65.9451 54.2416 65.7996 54.1562ZM67.1162 55.6635L67.018 55.9973C66.9752 56.0701 66.9948 56.6199 66.9948 56.6199L67.1162 55.6635Z" fill="#79862F"/>
<path d="M93.8791 49.7556C93.3385 50.7592 92.8128 51.8207 92.345 52.8671C91.3238 55.1054 90.7091 57.4846 89.7029 59.7807C88.9232 61.5247 87.6501 64.6916 85.2339 63.2234C83.2844 62.1271 82.9231 59.0767 82.601 57.1259C81.7889 58.5084 80.9041 59.8481 79.9315 61.0874C79.3585 61.7295 78.7001 62.5172 77.7738 62.5113C74.7939 62.6693 74.1624 58.5794 74.4756 56.4634C74.6374 55.1883 74.5105 53.9883 74.9033 52.6531C75.3088 51.1297 75.9581 49.358 77.194 48.4202C78.7464 47.2769 80.801 48.7774 82.083 49.6772C82.1237 46.2758 82.541 42.8997 83.1314 39.4786C83.1592 39.3481 83.1778 38.2335 83.4065 37.9275C83.2632 38.088 83.2401 38.7106 83.2574 39.0143C83.3256 38.565 83.3937 38.1158 83.5197 37.6514L83.4619 37.6665C83.5324 37.4632 83.6942 36.1881 83.7797 36.0426C83.9911 35.4327 84.2025 34.8229 84.4289 34.2708C84.9118 33.2822 85.5252 32.3213 86.4169 31.7196C87.6101 30.8546 89.7065 30.618 90.6165 31.9844C91.8926 33.8106 91.137 36.5964 90.5905 38.5264C90.2255 39.731 89.8604 40.9356 89.4225 42.0975L88.8137 43.5505L88.5573 43.9871C88.6 43.9143 88.57 43.7988 88.57 43.7988L88.3863 44.2781L88.4441 44.2631L88.3863 44.2781L88.3159 44.4814L87.3119 47.0235C87.4252 46.7474 87.6239 46.3259 87.6966 46.3686C87.6966 46.3686 86.0389 50.1904 85.8829 50.5392C85.2591 51.9344 85.6239 53.8125 85.8259 55.3013C85.8628 56.1548 86.217 61.5499 87.5453 61.2046C87.8918 61.1146 88.1309 60.3742 88.2591 60.156C88.6288 59.4433 88.9834 58.673 89.2803 57.9176C89.9169 56.3342 90.5107 54.8235 91.0895 53.255C91.6833 51.7443 92.3348 50.2186 93.1319 48.7784C93.3179 48.5451 94.4095 46.1035 94.9558 47.2562L94.9708 47.314C95.2664 47.977 94.2915 48.9702 93.8791 49.7556ZM82.0978 52.8177C82.1059 52.1374 82.1718 51.4421 81.6752 50.9546C81.2086 50.5827 80.7547 50.0225 80.2027 49.7961C79.9844 49.6678 79.6506 49.5696 79.4496 49.7452C79.3919 49.7602 79.3919 49.7602 79.3491 49.8329L79.4923 49.6724C78.7566 49.9253 78.5093 51.3459 78.3002 52.2018C77.8819 53.9135 77.6092 55.7106 77.5825 57.5055C77.5593 58.128 77.4067 60.3872 78.3053 60.5236C78.8273 60.6345 79.3702 59.8769 79.7272 59.3525C79.3702 59.8769 78.8678 60.3157 78.564 60.333C77.3362 60.5905 77.5871 57.9975 77.7893 56.4036C77.6448 57.9825 77.4945 60.4877 78.564 60.333C79.3875 60.1806 80.3256 58.3339 80.783 57.7217C81.2254 57.0519 81.6528 56.3243 82.0802 55.5966C82.5504 54.7963 82.3552 54.0455 82.2456 53.1492C82.2456 53.1492 82.2306 53.0914 82.2583 52.9609L82.2133 52.7877L82.0978 52.8177ZM79.8981 59.0615C80.3556 58.4494 80.813 57.8372 81.1549 57.2552C81.4691 56.8036 82.3563 55.7099 82.3517 55.2178C81.7683 56.2942 81.0695 57.4007 80.3983 58.3766L79.8981 59.0615ZM78.9922 50.3573C79.0499 50.3423 79.1204 50.139 79.2209 50.0512C79.1204 50.139 79.0499 50.3423 78.9922 50.3573ZM80.4337 49.736C80.3609 49.6933 80.2304 49.6655 80.1576 49.6228L80.4337 49.736ZM83.5952 45.77C83.6125 46.0738 83.3134 46.5831 83.3156 46.8291C83.2625 47.3361 83.6136 47.7381 83.4149 48.1597C83.4726 48.1447 83.4576 48.0869 83.4576 48.0869C83.5431 47.9414 83.564 47.0728 83.5617 46.8268C83.5744 46.6385 83.6703 46.0587 83.5952 45.77ZM83.5113 41.4145C83.4581 41.9215 83.3045 42.5163 83.2363 42.9656C83.1404 43.5454 83.1599 44.0952 83.1368 44.7177C83.2627 44.2534 83.3309 43.8041 83.3413 43.3699C83.3645 42.7473 83.4881 42.037 83.5113 41.4145ZM85.8142 43.1587L85.7438 43.362C85.731 43.5502 85.746 43.608 85.731 43.5502C85.6165 45.2446 85.5021 46.939 85.4453 48.6184C85.4881 48.5456 85.5158 48.4151 85.5585 48.3423C85.4453 48.6184 85.3321 48.8944 85.3344 49.1404L85.4626 48.9221L85.6036 48.5156L86.8212 45.6097L86.3106 46.7289L85.7122 47.7475C86.7334 45.5092 87.5941 43.1277 88.3393 40.7761C88.9862 38.7584 90.0433 35.7093 89.3574 33.5447C89.2673 33.1982 89.0895 32.7512 88.698 32.668C87.7694 32.4162 87.2229 34.3461 87.0115 34.956C86.2386 37.438 85.9727 39.9732 85.7069 42.5084L85.7219 42.5662C85.7219 42.5662 85.6791 42.6389 85.7092 42.7544L85.7242 42.8122C85.6814 42.885 85.6964 42.9427 85.7114 43.0005C85.7992 43.1009 85.7992 43.1009 85.8142 43.1587ZM85.7438 43.362C85.7588 43.4197 85.731 43.5502 85.731 43.5502L85.8142 43.1587L85.7438 43.362ZM87.2542 47.0385C87.2115 47.1112 87.2115 47.1112 87.2265 47.169C87.2265 47.169 87.2692 47.0962 87.2542 47.0385ZM87.2819 46.908L87.2392 46.9807C87.2542 47.0385 87.2969 46.9657 87.2819 46.908Z" fill="#79862F"/>
<path d="M110.399 45.7089C110.222 46.9262 109.899 48.0581 109.577 49.19C109.169 50.4674 108.746 51.687 108.193 52.8789C107.768 53.8526 107.129 55.19 106.077 55.6485C104.924 56.1947 103.672 55.4103 102.983 54.4181C101.561 52.5065 101.611 50.0891 101.706 47.8449C101.706 47.8449 101.616 47.4984 101.614 47.2524C101.402 47.8622 101.062 48.6903 100.851 49.3001C100.569 50.1132 100.461 50.8813 100.164 51.6367C100.023 52.0432 98.008 56.3893 97.4387 55.8591C97.4387 55.8591 97.8556 55.5658 97.7829 55.5231C97.3959 55.9319 96.8334 56.1397 96.3414 56.1443C96.4719 56.1721 96.5446 56.2148 96.5446 56.2148C95.7661 56.5404 94.7279 55.3923 94.4045 54.8598C93.8456 53.8953 93.6181 52.783 93.5212 51.6985C93.3701 49.4566 93.651 46.9791 94.3834 44.8159C94.6098 44.2638 94.7785 43.7267 95.2082 43.2451C95.4369 42.9391 95.6529 42.8213 95.9394 42.5002C96.3391 41.9031 96.7538 41.3638 97.5623 41.1536C99.3526 40.6883 100.571 42.5295 101.335 43.8104C101.902 42.4303 103.086 40.5812 104.892 41.838C105.868 42.5091 105.513 43.2795 105.319 44.1931C104.956 45.6437 104.842 47.3381 104.898 48.7414C104.926 48.6109 104.906 48.0611 105.007 47.9734C105.281 47.8406 104.813 56.7167 107.366 51.121C108.146 49.377 108.753 47.678 109.344 45.9213C109.626 45.1082 109.835 44.2523 110.117 43.4392C110.273 43.0904 110.728 42.2323 110.996 43.0258C111.091 43.8644 110.507 44.9408 110.399 45.7089ZM100.453 45.3962C100.378 45.1074 99.1017 43.2813 99.3027 43.1057C99.3455 43.033 99.9194 44.0552 99.9922 44.0979C99.7566 43.6659 99.2959 42.3677 98.6028 42.5478C97.3901 42.863 97.0364 45.2977 96.9151 46.2541C96.5846 48.0662 96.4146 50.0217 96.5762 51.8292C96.5566 51.2795 96.9245 44.1554 97.6175 43.9753C97.1278 44.2259 96.678 50.3231 96.6975 50.8729C96.7148 51.1767 96.6327 53.2326 97.1975 53.2707C97.574 53.2962 98.1401 51.916 98.311 51.625C98.7939 50.6363 99.189 49.5472 99.5991 48.5158L100.178 46.9473C100.291 46.6713 100.389 46.3375 100.503 46.0615C100.528 45.6849 100.528 45.6849 100.453 45.3962ZM100.508 45.1352L100.598 45.4817C100.684 45.3361 100.654 45.2206 100.508 45.1352ZM101.825 46.6426L101.712 46.9186C101.684 47.0491 101.704 47.5989 101.704 47.5989L101.825 46.6426Z" fill="#79862F"/>
<path d="M26.3937 29.6871L27.4946 28.2296C28.138 27.3842 28.9638 27.4778 29.4881 27.8347C30.0125 28.1917 30.3381 28.9702 29.6947 29.8156L29.0663 30.7187L30.3783 31.7341L29.9209 32.3462L26.3937 29.6871ZM29.0457 28.5046C28.8124 28.3186 28.4209 28.2354 28.1494 28.6142L27.4633 29.5324L28.527 30.304L29.2131 29.3859C29.4268 29.0221 29.279 28.6906 29.0457 28.5046Z" fill="#79862F"/>
<path d="M30.9023 24.2609L32.3369 22.9016C33.1259 22.1417 33.8085 22.3958 34.3051 22.8833C34.6412 23.2275 34.864 23.8478 34.5221 24.4299L36.4243 25.1069L35.8364 25.6912L34.0647 25.042L33.419 25.6414L34.6027 26.875L34.0575 27.3866L30.9023 24.2609ZM33.6963 24.3362C34.0405 24.0002 33.9504 23.6537 33.7749 23.4527C33.5993 23.2517 33.2505 23.0957 32.8486 23.4468L31.9591 24.2945L32.8068 25.1839L33.6963 24.3362Z" fill="#79862F"/>
<path d="M37.5474 21.3628C36.9457 20.471 36.7309 19.1705 37.8964 18.436C39.1046 17.6288 40.1533 18.3426 40.755 19.2343C41.3567 20.1261 41.5714 21.4266 40.4059 22.1611C39.2555 22.9533 38.149 22.2545 37.5474 21.3628ZM40.122 19.6455C39.7259 19.0703 39.026 18.5123 38.2925 19.0112C37.5591 19.5101 37.842 20.3614 38.1803 20.9516C38.5764 21.5269 39.2763 22.0848 40.0098 21.5859C40.7583 21.1447 40.5181 20.2207 40.122 19.6455Z" fill="#79862F"/>
<path d="M44.3912 14.9597C45.7749 14.3534 46.7809 15.1401 47.2243 16.1346C47.6527 17.0713 47.6214 18.3742 46.1222 19.0104L44.8967 19.5139L43.1657 15.4632L44.3912 14.9597ZM46.4458 16.4602C46.1502 15.7972 45.508 15.2243 44.7873 15.5349L44.1243 15.8306L45.264 18.5553L45.8843 18.3324C46.7783 17.9768 46.7414 17.1232 46.4458 16.4602Z" fill="#79862F"/>
<path d="M50.7217 15.5958L50.089 12.9242L50.8397 12.729L51.4725 15.4006C51.6676 16.1514 52.0741 16.2923 52.6667 16.2C53.1864 16.0649 53.5457 15.7866 53.3355 14.978L52.7028 12.3065L53.4536 12.1113L54.0863 14.7829C54.3588 16.0684 53.7131 16.6678 52.8468 16.893C51.9078 17.0754 50.9942 16.8813 50.7217 15.5958Z" fill="#79862F"/>
<path d="M57.4638 13.7817C57.3818 12.7549 57.7896 11.4775 59.193 11.421C60.0465 11.3842 60.5859 11.7988 60.7637 12.2458L60.1157 12.5992C59.8524 12.2977 59.6191 12.1118 59.2576 12.1441C58.4618 12.166 58.2677 13.0796 58.3173 13.7448C58.3819 14.4679 58.7076 15.2464 59.4456 15.2395C59.8071 15.2072 60.0509 14.9589 60.2646 14.5951L61.0049 14.8342C60.7935 15.4441 60.291 15.8829 59.5102 15.9625C58.1069 16.019 57.5607 14.8663 57.4638 13.7817Z" fill="#79862F"/>
<path d="M65.8061 15.9908L65.0531 15.9399L65.3952 12.2751L64.1351 12.171L64.201 11.4757L67.4316 11.8075L67.3657 12.5028L66.1056 12.3987L65.8061 15.9908Z" fill="#79862F"/>
<path d="M74.3416 15.6214C74.7517 14.5901 75.6261 13.6846 76.9335 14.2079C78.241 14.7312 78.3252 16.0041 77.9151 17.0355C77.5049 18.0668 76.6305 18.9723 75.3231 18.449C74.0157 17.9256 73.9315 16.6528 74.3416 15.6214ZM77.2175 16.7235C77.4716 16.041 77.4925 15.1724 76.7371 14.8755C75.924 14.5936 75.3661 15.2935 75.0969 15.9183C74.8428 16.6009 74.8219 17.4695 75.5773 17.7664C76.3326 18.0633 76.9483 17.3484 77.2175 16.7235Z" fill="#79862F"/>
<path d="M82.2835 16.764L84.6997 18.2322L84.3577 18.8143L82.5387 17.7458L81.9831 18.6917L83.1472 19.3756L82.8053 19.9577L81.6411 19.2738L80.6581 20.9473L80.0032 20.5626L82.2835 16.764Z" fill="#79862F"/>
<path d="M38.3387 84.6598L39.839 85.6879C40.7422 86.3163 40.6335 87.0843 40.2916 87.6664C39.9347 88.1908 39.1712 88.5742 38.3258 87.9308L37.4226 87.3024L36.48 88.6571L35.8679 88.1997L38.3387 84.6598ZM39.6795 87.209C39.8655 86.9757 39.9487 86.5842 39.5121 86.3277L38.6089 85.6993L37.8373 86.763L38.7405 87.3914C39.1193 87.6629 39.5085 87.5 39.6795 87.209Z" fill="#79862F"/>
<path d="M44.7146 88.5516L46.5163 89.3163C47.4899 89.7415 47.5546 90.4645 47.3004 91.1471C47.1167 91.6264 46.5992 92.0075 45.9617 91.9266L46.0528 93.9375L45.2824 93.5828L45.2213 91.6875L44.3932 91.3478L43.6989 92.9463L43.0013 92.6344L44.7146 88.5516ZM45.6938 91.1331C46.1153 91.3318 46.4318 91.1262 46.545 90.8502C46.6583 90.5742 46.6837 90.1976 46.2044 90.0139L45.1002 89.5611L44.5896 90.6803L45.6938 91.1331Z" fill="#79862F"/>
<path d="M51.272 93.3821C51.4939 92.338 52.2655 91.2743 53.6284 91.5366C55.0063 91.8566 55.2637 93.0844 55.0419 94.1285C54.82 95.1726 54.0484 96.2363 52.6855 95.974C51.3226 95.7117 51.0502 94.4262 51.272 93.3821ZM54.3316 94.0049C54.4552 93.2946 54.3606 92.456 53.5047 92.2469C52.6639 92.0955 52.1938 92.8959 52.0551 93.5485C51.9315 94.2588 52.0261 95.0973 52.8819 95.3065C53.665 95.4729 54.1929 94.6575 54.3316 94.0049Z" fill="#79862F"/>
<path d="M61.1913 92.4072C62.7251 92.3785 63.3291 93.5162 63.3105 94.6308C63.3197 95.6148 62.7664 96.8068 61.1748 96.8505L59.8142 96.8342L59.788 92.4637L61.1913 92.4072ZM62.5147 94.6527C62.5079 93.9146 62.1822 93.1361 61.3287 93.173L60.5906 93.1799L60.5603 96.1471L61.2407 96.1552C62.2097 96.0883 62.5066 95.333 62.5147 94.6527Z" fill="#79862F"/>
<path d="M68.1302 94.6727L67.5703 92.0439L68.3361 91.9065L68.896 94.5353C69.0334 95.3011 69.5127 95.4848 70.0325 95.3497C70.5523 95.2146 70.9115 94.9363 70.7741 94.1705L70.2141 91.5417L70.9799 91.4043L71.5399 94.0331C71.8124 95.3187 71.1089 95.9331 70.2276 96.1005C69.2736 96.2251 68.4027 95.9583 68.1302 94.6727Z" fill="#79862F"/>
<path d="M75.8923 92.0387C75.4639 91.1019 75.4224 89.7563 76.7057 89.2378C77.4842 88.9122 78.094 89.1236 78.5029 89.5106L78.0304 90.0649C77.7244 89.8362 77.3906 89.738 77.0591 89.8858C76.3383 90.1965 76.448 91.0928 76.6708 91.713C76.9665 92.376 77.5659 93.0217 78.2289 92.7261C78.6181 92.5633 78.7313 92.2872 78.8145 91.8957L79.5526 91.8888C79.5444 92.5691 79.2602 93.1362 78.5395 93.4468C77.2412 93.9076 76.3358 93.0332 75.8923 92.0387Z" fill="#79862F"/>
<path d="M85.7227 89.2987L85.0898 89.7098L83.0064 86.6754L81.9564 87.3799L81.5603 86.8047L84.2354 84.9996L84.6316 85.5748L83.5816 86.2793L85.7227 89.2987Z" fill="#79862F"/>
<path d="M92.5412 80.1896C91.6958 79.5461 91.0341 78.4234 91.9062 77.272C92.7783 76.1205 94.0407 76.4706 94.8861 77.114C95.7316 77.7574 96.3933 78.8801 95.5212 80.0316C94.7068 81.168 93.4444 80.8179 92.5412 80.1896ZM94.4287 77.7261C93.8744 77.2536 93.0185 77.0445 92.5033 77.6716C92.0032 78.3565 92.5021 79.09 93.0414 79.5047C93.5808 79.9194 94.4516 80.1862 94.9668 79.5591C95.482 78.932 94.9681 78.1408 94.4287 77.7261Z" fill="#79862F"/>
<path d="M95.3604 72.0585L96.6103 69.5142L97.2501 69.8411L96.3121 71.6879L97.243 72.1857L97.8541 70.9788L98.494 71.3057L97.8829 72.5127L99.5841 73.3652L99.2722 74.0628L95.3604 72.0585Z" fill="#79862F"/>
</svg>
