<svg width="94" height="94" viewBox="0 0 94 94" fill="none" xmlns="http://www.w3.org/2000/svg">
<circle cx="47" cy="47" r="46.5" stroke="#AFB695"/>
<path d="M13.5471 30.1358L13.9815 29.4644L17.3387 31.5181L18.5235 29.5828L19.195 29.9778L17.5756 32.624L13.5471 30.1358Z" fill="#79862F"/>
<path d="M22.6311 22.5128C21.9202 21.6044 21.5647 20.2615 22.7496 19.3136C23.9345 18.3657 25.1588 19.0372 25.8698 19.9456C26.5807 20.854 26.9756 22.1968 25.7513 23.1447C24.5664 24.0531 23.342 23.4212 22.6311 22.5128ZM25.1983 20.459C24.7244 19.8666 23.9345 19.3531 23.2235 19.9061C22.5126 20.459 22.8286 21.4069 23.3025 21.9599C23.7765 22.5523 24.5664 23.0657 25.2773 22.5128C25.9882 21.9599 25.6328 21.012 25.1983 20.459Z" fill="#79862F"/>
<path d="M33.4924 15.9171C33.1765 14.8903 33.2555 13.4289 34.6378 12.9945C35.5067 12.718 36.1782 13.034 36.4941 13.4684L35.9017 13.9819C35.5857 13.7054 35.2698 13.5869 34.8748 13.7449C34.0454 14.0213 34.0849 14.9692 34.2824 15.6802C34.5193 16.4306 35.1118 17.1415 35.8622 16.9045C36.2572 16.7861 36.4546 16.4701 36.5336 16.0751L37.3235 16.1146C37.2445 16.8255 36.8891 17.418 36.0992 17.655C34.7168 18.0894 33.8479 17.023 33.4924 15.9171Z" fill="#79862F"/>
<path d="M48.1454 15.2062L46.2891 15.1272L45.8546 16.1541L45.0252 16.0751L47 11.4541L47.7899 11.4936L49.2908 16.2726L48.4614 16.2331L48.1454 15.2062ZM47.474 13.0339C47.4345 12.9154 47.3555 12.6785 47.3555 12.56C47.316 12.718 47.237 12.9154 47.158 13.0339L46.5656 14.4163L47.9084 14.4953L47.474 13.0339Z" fill="#79862F"/>
<path d="M58.6513 13.8237L59.4017 14.1397L57.8614 17.7338L59.9546 18.6422L59.6387 19.3531L56.795 18.1288L58.6513 13.8237Z" fill="#79862F"/>
<path d="M69.2756 20.1035L69.8681 20.6565L67.2219 23.5397L68.9202 25.08L68.4067 25.6329L66.116 23.5397L69.2756 20.1035Z" fill="#79862F"/>
<path d="M75.042 31.5576L76.7403 28.7139L77.1748 29.5038L75.9504 31.5181L78.3202 31.5971L78.7546 32.387L75.437 32.2685L73.8176 33.1374L73.4227 32.4265L75.042 31.5576Z" fill="#79862F"/>
<path d="M18.4446 66.8669C19.432 66.0769 21.0118 65.761 21.9992 66.9853C22.6311 67.7753 22.5126 68.4862 22.3151 69.0786L21.4462 68.7232C21.5647 68.3282 21.6042 67.8937 21.2883 67.4988C20.6168 66.6694 19.6294 67.0643 18.9975 67.5778C18.2471 68.1702 17.8126 69.0391 18.4051 69.7895C18.7605 70.2635 19.3925 70.303 19.7874 69.987L19.8664 69.9475L19.274 69.2366L19.9454 68.7232L21.0908 70.145L20.5378 70.5795C19.5109 71.4089 18.4051 71.2114 17.7336 70.3425C16.7462 69.1181 17.3782 67.7358 18.4446 66.8669Z" fill="#79862F"/>
<path d="M30.2933 74.3315L32.3866 75.3584C33.5715 75.9509 33.5715 76.8198 33.216 77.5702C32.9395 78.1231 32.3471 78.5576 31.5967 78.4391L31.5572 80.8483L30.6488 80.4139V78.1231L29.6614 77.6492L28.753 79.5055L27.9631 79.1105L30.2933 74.3315ZM31.3202 77.4517C31.8336 77.7282 32.1891 77.4912 32.3471 77.1357C32.5051 76.8198 32.5446 76.3853 31.9916 76.1089L30.6883 75.4769L30.0168 76.8198L31.3202 77.4517Z" fill="#79862F"/>
<path d="M42.537 80.9274C42.5765 79.624 43.2084 78.2417 44.9068 78.2417C46.6051 78.2812 47.1975 79.703 47.158 81.0064C47.1185 82.3098 46.4866 83.6921 44.7883 83.6921C43.0899 83.6526 42.537 82.2308 42.537 80.9274ZM46.2101 81.0064C46.2101 80.1375 45.8941 79.1501 44.8673 79.1106C43.8404 79.0711 43.4849 80.1375 43.4454 80.9274C43.4454 81.7963 43.7614 82.7837 44.7883 82.8232C45.8152 82.8627 46.2101 81.8358 46.2101 81.0064Z" fill="#79862F"/>
<path d="M55.7286 76.7802L56.558 76.3853L58.4143 78.913C58.5723 79.1105 58.6513 79.229 58.6908 79.3474C58.6513 79.229 58.6118 79.071 58.5723 78.834L57.9799 75.7138L58.6908 75.3979L60.7051 77.8466C60.863 78.0441 60.942 78.1626 61.021 78.2416C60.9815 78.1231 60.942 78.0046 60.9025 77.7676L60.1521 74.687L60.9815 74.292L62.1664 79.5449L61.416 79.9004L59.2832 77.2937C59.1252 77.1357 59.0462 77.0172 58.9672 76.8987C59.0067 77.0172 59.0462 77.1752 59.0857 77.3727L59.7177 80.6903L58.9672 81.0458L55.7286 76.7802Z" fill="#79862F"/>
<path d="M74.0151 69.434L70.0656 69.039C69.9471 69.039 69.7891 68.9995 69.6311 68.96C69.7496 69.039 69.8681 69.118 69.9471 69.197L72.5143 71.2903L71.9614 72.0012L67.8538 68.6835L68.4067 68.0121L72.2773 68.4071C72.3958 68.4071 72.5933 68.4466 72.7118 68.4861C72.5933 68.4071 72.4748 68.3281 72.3958 68.2491L69.8681 66.1953L70.421 65.4844L74.5286 68.802L74.0151 69.434Z" fill="#79862F"/>
<path d="M77.8857 49.2516C78.5401 49.2516 79.0706 48.7211 79.0706 48.0667C79.0706 47.4123 78.5401 46.8818 77.8857 46.8818C77.2313 46.8818 76.7009 47.4123 76.7009 48.0667C76.7009 48.7211 77.2313 49.2516 77.8857 49.2516Z" fill="#79862F"/>
<path d="M13.0336 49.2516C13.688 49.2516 14.2185 48.7211 14.2185 48.0667C14.2185 47.4123 13.688 46.8818 13.0336 46.8818C12.3792 46.8818 11.8488 47.4123 11.8488 48.0667C11.8488 48.7211 12.3792 49.2516 13.0336 49.2516Z" fill="#79862F"/>
<path d="M58.1378 37.719C59.4412 35.1913 59.5597 32.3476 58.6908 29.8594C56.163 30.5703 53.8723 32.3081 52.5689 34.8358C51.2655 37.3636 51.1471 40.2073 52.016 42.6955C54.5437 41.9846 56.8345 40.2468 58.1378 37.719Z" stroke="#79862F" stroke-miterlimit="10" stroke-linecap="round" stroke-linejoin="round"/>
<path d="M43.0504 40.444C41.905 38.3507 41.7866 35.981 42.4975 33.8877C44.6302 34.4406 46.5655 35.8625 47.6714 37.9558C48.8168 40.049 48.9353 42.4188 48.2244 44.5121C46.0916 43.9591 44.1958 42.5373 43.0504 40.444Z" stroke="#79862F" stroke-miterlimit="10" stroke-linecap="round" stroke-linejoin="round"/>
<path d="M49.3697 48.146C48.6193 44.8283 47.237 41.5897 45.1042 38.667" stroke="#79862F" stroke-miterlimit="10" stroke-linecap="round" stroke-linejoin="round"/>
<path d="M50.6731 48.1853C51.2261 43.8013 52.8454 39.5357 55.6101 35.7441" stroke="#79862F" stroke-miterlimit="10" stroke-linecap="round" stroke-linejoin="round"/>
<path d="M23.658 53.0433C23.658 53.0433 30.2143 50.3576 31.3597 50.0417C32.505 49.7257 36.4546 48.3828 39.8908 51.8585C41.1151 53.0828 42.9714 53.7543 44.7487 53.9912C46.4471 54.1887 48.8563 53.5963 50.0807 54.9786C50.6731 55.6501 51.384 57.0719 49.9227 57.7828C47.7899 58.7702 41.2336 58.2568 40.0882 57.9408C38.9429 57.6248 37.4815 56.9534 36.9681 56.4795" stroke="#79862F" stroke-miterlimit="10" stroke-linecap="round" stroke-linejoin="round"/>
<path d="M28.279 62.0487C28.279 62.0487 29.7009 60.1924 31.3992 60.2319C33.058 60.2714 40.3252 65.0504 44.0378 65.1293C47.7504 65.2083 60.6261 55.4529 60.6261 55.4529C60.6261 55.4529 63.2328 53.9915 62.0874 52.0167C60.942 50.042 57.9798 52.1747 57.9798 52.1747L51.0681 56.2823" stroke="#79862F" stroke-miterlimit="10" stroke-linecap="round" stroke-linejoin="round"/>
<path d="M57.9403 52.1744C57.4269 50.9105 56.242 50.0416 54.7807 50.0416C54.2277 50.0416 53.7143 50.1601 53.2798 50.3971C52.7664 49.2122 51.5815 48.3828 50.1992 48.3828C48.8958 48.3828 47.7899 49.1332 47.1975 50.1996C46.763 49.5677 46.0126 49.1332 45.1832 49.1332C44.1958 49.1332 43.3269 49.7652 42.9319 50.6341C42.7345 50.5946 42.4975 50.5551 42.3 50.5551C41.3916 50.5551 40.6017 51.0685 40.1672 51.8189" stroke="#79862F" stroke-miterlimit="10" stroke-linecap="round" stroke-linejoin="round"/>
</svg>
