<svg width="94" height="94" viewBox="0 0 94 94" fill="none" xmlns="http://www.w3.org/2000/svg">
<circle cx="47" cy="47" r="46.5" stroke="#AFB695"/>
<path d="M20.6168 29.1479L16.4303 28.9899C16.3118 28.9899 16.1143 28.9504 15.9563 28.9504C16.0748 29.0294 16.1933 29.1084 16.3118 29.1874L19.1555 31.2017L18.6025 31.9521L14.1395 28.7529L14.6529 28.0025L18.7605 28.1605C18.9185 28.1605 19.0765 28.2 19.2345 28.2C19.116 28.121 18.958 28.042 18.879 27.963L16.0748 25.9882L16.6277 25.2378L21.1303 28.437L20.6168 29.1479Z" fill="#79862F"/>
<path d="M24.2504 21.4857C23.4605 20.3798 23.1445 18.7605 24.6059 17.7731C26.0672 16.7462 27.4496 17.6151 28.2395 18.7605C29.0294 19.9059 29.3454 21.4857 27.884 22.4731C26.3832 23.4605 25.0008 22.5916 24.2504 21.4857ZM27.4101 19.274C26.8966 18.5235 25.9882 17.8916 25.1193 18.484C24.2504 19.0765 24.5664 20.2219 25.0403 20.8933C25.5538 21.6437 26.4622 22.2756 27.3311 21.6832C28.2 21.0908 27.884 19.9849 27.4101 19.274Z" fill="#79862F"/>
<path d="M39.1403 17.4175L36.0597 14.6133C35.9807 14.5343 35.8227 14.3764 35.7437 14.2579C35.7832 14.3764 35.8227 14.5343 35.8622 14.6528L36.7311 18.0495L35.8227 18.2864L34.4403 12.915L35.3092 12.678L38.3504 15.4428C38.4689 15.5217 38.5874 15.6797 38.6664 15.7982C38.6269 15.6797 38.5874 15.5217 38.5479 15.4033L37.679 12.0856L38.5874 11.8486L39.9698 17.2201L39.1403 17.4175Z" fill="#79862F"/>
<path d="M46.8815 13.9419L48.8958 14.0604L48.8563 14.9688L46.842 14.8503L46.8815 13.9419Z" fill="#79862F"/>
<path d="M57.0714 18.7211L56.163 18.4051L57.7034 14.0606L56.2025 13.5471L56.5185 12.6782L60.3891 14.0606L60.0731 14.9295L58.5723 14.416L57.0714 18.7211Z" fill="#79862F"/>
<path d="M68.3672 22.5913L66.4714 21.0905L64.9706 22.9468L64.2202 22.3544L67.6563 18.0493L68.4067 18.6418L67.0244 20.3796L68.9202 21.8804L70.3025 20.1426L71.0529 20.735L67.6168 25.0401L66.8664 24.4476L68.3672 22.5913Z" fill="#79862F"/>
<path d="M74.3311 28.5552C75.3975 27.8838 77.0958 27.5678 77.9647 28.9897C78.5176 29.8981 78.3597 30.7275 78.0042 31.2409L77.2143 30.7275C77.4118 30.2535 77.4908 29.8981 77.2143 29.4636C76.6613 28.5947 75.595 28.9107 74.8445 29.3451C74.0546 29.8191 73.4227 30.7275 73.8966 31.5174C74.1731 31.9518 74.5681 32.0308 75.042 32.0308L75.2395 32.9392C74.4101 33.0577 73.6202 32.8207 73.1067 31.9913C72.1983 30.5695 73.1857 29.2661 74.3311 28.5552Z" fill="#79862F"/>
<path d="M16.3513 68.3669L18.1286 64.5753C18.1681 64.4568 18.2866 64.2989 18.3656 64.1804C18.2471 64.2594 18.1286 64.3384 18.0101 64.4173L15.0479 66.2341L14.574 65.4442L19.274 62.561L19.7479 63.351L18.0101 67.0636C17.9311 67.182 17.8521 67.34 17.7731 67.498C17.8916 67.419 18.0101 67.34 18.1286 67.261L21.0513 65.4442L21.5252 66.2341L16.7857 69.1173L16.3513 68.3669Z" fill="#79862F"/>
<path d="M24.0135 73.1462C24.8429 72.0798 26.2647 71.2899 27.6866 72.3562C29.1084 73.4621 28.674 75.0025 27.8446 76.1083C27.0151 77.1747 25.5933 77.9646 24.1714 76.8983C22.7496 75.7924 23.184 74.2125 24.0135 73.1462ZM27.0546 75.5159C27.6076 74.805 27.963 73.7386 27.0941 73.1067C26.2252 72.4352 25.2773 73.1067 24.7639 73.7781C24.2109 74.489 23.8555 75.5554 24.7244 76.1873C25.5538 76.8193 26.5412 76.1873 27.0546 75.5159Z" fill="#79862F"/>
<path d="M36.8496 83.0596L35.6647 79.0705C35.6252 78.9521 35.5857 78.7546 35.5462 78.5966C35.5067 78.7151 35.4672 78.8731 35.4672 78.9916L34.4403 82.3487L33.5319 82.0722L35.1513 76.7798L36.0202 77.0563L37.1656 81.0058C37.2051 81.1243 37.2445 81.3218 37.2445 81.4798C37.284 81.3218 37.3235 81.2033 37.363 81.0848L38.3504 77.8067L39.2588 78.0831L37.6395 83.3756L36.8496 83.0596Z" fill="#79862F"/>
<path d="M45.8151 81.4399L47.8294 81.4004L47.8689 82.3088L45.8546 82.3483L45.8151 81.4399Z" fill="#79862F"/>
<path d="M57.6244 82.2694L56.716 82.5853L55.2546 78.2013L53.7538 78.7147L53.4773 77.8458L57.3479 76.5425L57.6244 77.4114L56.1235 77.9248L57.6244 82.2694Z" fill="#79862F"/>
<path d="M67.4193 73.9357L65.5235 75.4365L67.0244 77.3323L66.274 77.9248L62.8378 73.5802L63.5883 72.9878L64.9706 74.7256L66.8664 73.2248L65.4841 71.487L66.2345 70.8945L69.6706 75.2391L68.9202 75.8315L67.4193 73.9357Z" fill="#79862F"/>
<path d="M72.7908 67.6168C71.7244 66.9453 70.6975 65.6025 71.5664 64.1411C72.1193 63.2327 72.9488 62.9958 73.5807 63.1142L73.4622 64.0621C72.9488 64.0621 72.6328 64.1806 72.3563 64.6151C71.8034 65.484 72.5933 66.3134 73.3042 66.7873C74.0941 67.2613 75.1605 67.4588 75.674 66.6689C75.9504 66.2344 75.8319 65.8395 75.6345 65.405L76.3849 64.8521C76.8588 65.563 76.9773 66.3529 76.4639 67.1823C75.516 68.6437 73.9361 68.3277 72.7908 67.6168Z" fill="#79862F"/>
<path d="M14.6135 48.6585C14.6135 49.3299 14.1 49.8434 13.4286 49.8434C12.7572 49.8434 12.2437 49.3299 12.2437 48.6585C12.2437 47.9871 12.7572 47.4736 13.4286 47.4736C14.0605 47.4736 14.6135 48.0266 14.6135 48.6585Z" fill="#79862F"/>
<path d="M78.7151 48.6585C78.7151 49.3299 78.2017 49.8434 77.5303 49.8434C76.8588 49.8434 76.3454 49.3299 76.3454 48.6585C76.3454 47.9871 76.8588 47.4736 77.5303 47.4736C78.2017 47.4736 78.7151 48.0266 78.7151 48.6585Z" fill="#79862F"/>
<path d="M36.5336 61.297H34.5193V51.4231H31.2017V49.4878H39.8118V51.4231H36.4941V61.297H36.5336Z" fill="#79862F"/>
<path d="M49.0143 56.1625H43.9193V61.297H41.9051V49.4482H43.9193V54.2272H49.0143V49.4482H50.9891V61.2575H49.0143V56.1625Z" fill="#79862F"/>
<path d="M53.3983 55.3728C53.3983 52.6476 54.6622 49.251 58.2958 49.251C60.5076 49.251 61.8504 50.5148 62.3639 51.7787L60.5471 52.6081C59.9546 51.6997 59.3622 51.2258 58.2958 51.2258C56.163 51.2258 55.4916 53.556 55.4916 55.4123C55.4916 57.3871 56.321 59.5594 58.2958 59.5594C59.3622 59.5594 59.9941 58.9274 60.5076 58.0585L62.3639 58.7695C61.653 60.3888 60.3496 61.5342 58.2958 61.5342C54.6622 61.4947 53.3983 58.2955 53.3983 55.3728Z" fill="#79862F"/>
<path d="M37.837 45.3415L32.979 37.8768C32.821 37.6398 32.6631 37.2843 32.5051 37.0079C32.5446 37.2843 32.5446 37.6003 32.5446 37.8768V45.3415H30.5698V33.5322H32.5051L37.2051 40.8784C37.3631 41.1154 37.521 41.4709 37.679 41.7868C37.6395 41.4709 37.6395 41.1549 37.6395 40.8784V33.5322H39.6143V45.3415H37.837Z" fill="#79862F"/>
<path d="M42.0631 39.4168C42.0631 36.4941 43.4454 33.2949 47.158 33.2949C50.9101 33.2949 52.253 36.4941 52.253 39.4168C52.253 42.3395 50.9496 45.5386 47.158 45.5386C43.4059 45.5386 42.0631 42.3395 42.0631 39.4168ZM50.1992 39.4168C50.1992 37.4815 49.4093 35.2302 47.158 35.2302C44.9068 35.2302 44.1168 37.5605 44.1168 39.4168C44.1168 41.3521 44.9068 43.6033 47.158 43.6033C49.4093 43.6033 50.1992 41.2336 50.1992 39.4168Z" fill="#79862F"/>
<path d="M61.9294 45.3415L57.111 37.8768C56.953 37.6398 56.795 37.2843 56.637 37.0079C56.6765 37.2843 56.6765 37.6003 56.6765 37.8768V45.3415H54.7017V33.5322H56.637L61.337 40.8784C61.495 41.1154 61.653 41.4709 61.811 41.7868C61.7715 41.4709 61.7715 41.1549 61.7715 40.8784V33.5322H63.7462V45.3415H61.9294Z" fill="#79862F"/>
</svg>
