<svg width="94" height="94" viewBox="0 0 94 94" fill="none" xmlns="http://www.w3.org/2000/svg">
<circle cx="47" cy="47" r="46.5" stroke="#AFB695"/>
<path d="M19.9059 30.175H15.7194C15.6009 30.175 15.4034 30.175 15.2454 30.1355C15.3639 30.175 15.4824 30.2539 15.6009 30.3329L18.5236 32.2287L18.0101 33.0186L13.4286 30.017L13.942 29.2665H18.0496C18.2076 29.2665 18.3656 29.2665 18.5236 29.306C18.4051 29.2271 18.2471 29.1481 18.1681 29.1086L15.2849 27.2128L15.7983 26.4229L20.4194 29.464L19.9059 30.175Z" fill="#79862F"/>
<path d="M23.2236 22.394C22.3942 21.2881 22.0387 19.7083 23.4605 18.6419C24.8824 17.5755 26.3042 18.3654 27.0942 19.4713C27.9236 20.5772 28.279 22.157 26.8572 23.2234C25.4748 24.2898 24.053 23.4999 23.2236 22.394ZM26.3437 20.1032C25.7908 19.3923 24.8824 18.7604 24.0135 19.3923C23.1446 20.0242 23.5 21.1301 24.0135 21.8015C24.5664 22.5125 25.4748 23.1444 26.3437 22.5125C27.2126 21.8805 26.8177 20.7746 26.3437 20.1032Z" fill="#79862F"/>
<path d="M37.995 17.7731L34.7958 15.0873C34.6773 15.0084 34.5588 14.8899 34.4404 14.7714C34.4799 14.8899 34.5588 15.0479 34.5983 15.1663L35.5857 18.5235L34.6773 18.8L33.0975 13.5075L33.9664 13.231L37.1261 15.8773C37.2446 15.9563 37.3631 16.1142 37.4815 16.1932C37.442 16.0747 37.3631 15.9168 37.3236 15.7983L36.3362 12.5201L37.2051 12.2437L38.7849 17.5361L37.995 17.7731Z" fill="#79862F"/>
<path d="M45.5782 14.021L47.5925 14.0605V14.9689L45.5782 14.9294V14.021Z" fill="#79862F"/>
<path d="M54.9387 15.1664C55.3731 13.9026 56.5975 12.7177 58.1378 13.2311C59.1647 13.5866 59.4412 14.258 59.5992 14.8899L58.6513 15.0874C58.5328 14.653 58.3353 14.258 57.8219 14.1C56.7555 13.7446 56.1236 14.653 55.8471 15.4824C55.5311 16.4303 55.6101 17.4572 56.5975 17.7731C57.1899 17.9706 57.7429 17.6941 57.9404 17.1412L57.9799 17.0622L57.0715 16.7462L57.3479 15.9168L59.1647 16.5488L58.9278 17.2597C58.4933 18.6026 57.3874 19.037 56.321 18.642C54.7017 18.0891 54.4647 16.5093 54.9387 15.1664Z" fill="#79862F"/>
<path d="M67.2614 24.9221L69.1177 22.6313C69.2362 22.4733 69.4336 22.2364 69.5521 22.1179C69.3547 22.2364 69.1177 22.3943 68.9202 22.4733L65.958 23.9742L66.8269 20.775C66.8664 20.5775 66.9454 20.3011 67.0244 20.1036C66.9454 20.2221 66.7479 20.4985 66.6294 20.6565L64.7731 22.9473L64.0227 22.3548L67.4983 18.0498L68.2488 18.6422L67.3009 22.0784C67.2614 22.2364 67.2219 22.3548 67.1429 22.4733C67.2614 22.3943 67.3799 22.3154 67.5378 22.2364L70.6975 20.617L71.4084 21.2095L67.9328 25.5145L67.2614 24.9221Z" fill="#79862F"/>
<path d="M74.6866 29.1085C75.8715 28.3976 77.4908 28.2001 78.3992 29.7405C79.3076 31.2808 78.3597 32.5842 77.1748 33.2951C75.99 34.006 74.3706 34.2035 73.4622 32.6631C72.5538 31.1228 73.5017 29.8195 74.6866 29.1085ZM76.6219 32.4657C77.4118 31.9917 78.1227 31.1623 77.5698 30.2144C77.0168 29.306 75.8715 29.543 75.1605 29.9379C74.3706 30.4119 73.6597 31.2413 74.2126 32.1892C74.7656 33.0976 75.911 32.9001 76.6219 32.4657Z" fill="#79862F"/>
<path d="M15.6009 67.3006L17.5362 63.588C17.6151 63.4695 17.6941 63.3115 17.7731 63.1931C17.6546 63.272 17.5362 63.351 17.4177 63.43L14.3765 65.1283L13.9025 64.2989L18.721 61.5737L19.1555 62.3636L17.2597 65.9973C17.1807 66.1157 17.1017 66.2737 17.0227 66.3922C17.1412 66.3132 17.2597 66.2342 17.3782 66.1552L20.3799 64.4569L20.8538 65.2863L16.0353 68.0115L15.6009 67.3006Z" fill="#79862F"/>
<path d="M23.0656 72.3559C23.9345 71.2895 25.3958 70.5786 26.7782 71.724C28.1605 72.8694 27.6866 74.4097 26.8177 75.4761C25.9488 76.5425 24.4874 77.2534 23.1051 76.108C21.7227 74.9626 22.1967 73.4223 23.0656 72.3559ZM26.0277 74.8441C26.6202 74.1332 26.9756 73.1063 26.1857 72.4349C25.3563 71.7635 24.3689 72.3559 23.816 72.9878C23.2235 73.6593 22.8681 74.7257 23.658 75.3971C24.4874 76.108 25.5143 75.4761 26.0277 74.8441Z" fill="#79862F"/>
<path d="M35.5067 82.7831L34.4799 78.715C34.4404 78.5965 34.4009 78.3991 34.4009 78.2411C34.3614 78.3596 34.3219 78.5175 34.2824 78.636L33.137 81.9142L32.2681 81.5982L34.0849 76.3848L34.9538 76.7007L35.9412 80.6898C35.9807 80.8083 35.9807 81.0058 36.0202 81.1638C36.0597 81.0058 36.0992 80.8873 36.1387 80.7688L37.2841 77.5301L38.153 77.8461L36.3362 83.0596L35.5067 82.7831Z" fill="#79862F"/>
<path d="M44.5908 81.519L46.6051 81.5585V82.4669L44.5908 82.4274V81.519Z" fill="#79862F"/>
<path d="M53.6748 80.6897C53.2798 79.3863 53.5563 77.7275 55.1361 77.214C56.163 76.8981 56.795 77.2535 57.3084 77.688L56.637 78.3989C56.2815 78.1224 55.8866 77.925 55.4126 78.0829C54.3462 78.3989 54.3462 79.5443 54.6227 80.3737C54.9387 81.3216 55.6101 82.1115 56.5975 81.7955C57.1899 81.5981 57.4664 81.0451 57.3084 80.4922L57.2689 80.4132L56.3605 80.6897L56.084 79.8208L57.9403 79.2283L58.1773 79.9392C58.6118 81.2821 57.9798 82.2695 56.874 82.625C55.2546 83.2174 54.1093 82.072 53.6748 80.6897Z" fill="#79862F"/>
<path d="M69.3152 75.5947L67.4983 73.304C67.3799 73.146 67.1824 72.909 67.1034 72.751C67.1824 72.9485 67.2614 73.225 67.3404 73.4225L68.1698 76.6216L65.2471 75.0813C65.0496 75.0023 64.8126 74.8443 64.6152 74.7258C64.7336 74.8443 64.9311 75.0813 65.0496 75.2393L66.8664 77.53L66.116 78.1225L62.6799 73.8174L63.4303 73.225L66.5504 74.8838C66.6689 74.9628 66.8269 75.0418 66.9059 75.1208C66.8664 75.0023 66.7874 74.8443 66.7479 74.7258L65.8395 71.2897L66.5504 70.6973L69.9866 75.0023L69.3152 75.5947Z" fill="#79862F"/>
<path d="M73.1067 67.2613C71.9219 66.5898 70.974 65.2865 71.8429 63.7461C72.7513 62.2058 74.3311 62.4033 75.516 63.0747C76.7009 63.7461 77.6883 65.0495 76.7798 66.5898C75.9109 68.1302 74.2916 67.9722 73.1067 67.2613ZM75.0815 63.9041C74.2916 63.4302 73.2252 63.2327 72.6723 64.1806C72.1193 65.1285 72.9093 65.9974 73.6202 66.3924C74.4101 66.8268 75.4765 67.0638 76.0294 66.1159C76.5429 65.247 75.7925 64.3386 75.0815 63.9041Z" fill="#79862F"/>
<path d="M14.6135 48.7772C14.6135 49.4486 14.1 49.962 13.4286 49.962C12.7572 49.962 12.2437 49.4486 12.2437 48.7772C12.2437 48.1057 12.7572 47.5923 13.4286 47.5923C14.0605 47.5923 14.6135 48.1057 14.6135 48.7772Z" fill="#79862F"/>
<path d="M78.7151 48.7772C78.7151 49.4486 78.2017 49.962 77.5303 49.962C76.8588 49.962 76.3454 49.4486 76.3454 48.7772C76.3454 48.1057 76.8588 47.5923 77.5303 47.5923C78.2017 47.5923 78.7151 48.1057 78.7151 48.7772Z" fill="#79862F"/>
<path d="M29.5034 55.4519C29.5034 52.5687 31.1227 49.3301 34.5983 49.3301C36.8496 49.3301 37.916 50.4755 38.6664 51.6998L36.8891 52.7267C36.3756 51.9368 35.7042 51.2654 34.5983 51.2654C32.2681 51.2654 31.5572 53.5956 31.5572 55.4124C31.5572 57.5452 32.4261 59.5595 34.5983 59.5595C35.9017 59.5595 36.8496 58.5721 36.8496 57.3477V57.1502H34.7958V55.2544H38.8639V56.8738C38.8639 59.8755 37.0076 61.4948 34.5983 61.4948C31.0437 61.5738 29.5034 58.5721 29.5034 55.4519Z" fill="#79862F"/>
<path d="M49.8832 61.3761V55.0963C49.8832 54.6619 49.9227 53.9904 49.9622 53.6745C49.8042 54.1484 49.6067 54.7013 49.4488 55.1358L46.6051 61.5736L43.7614 55.0963C43.5639 54.7013 43.3664 54.1484 43.2084 53.6745C43.2479 53.9904 43.2874 54.6619 43.2874 55.0963V61.3761H41.2731V49.5669H43.2874L46.2891 56.5182C46.4076 56.7946 46.5261 57.1106 46.6051 57.3871C46.6841 57.1106 46.8025 56.7946 46.921 56.5182L49.9227 49.5669H51.858V61.3761H49.8832Z" fill="#79862F"/>
<path d="M54.3067 55.4519C54.3067 52.5292 55.6891 49.3301 59.4017 49.3301C63.1538 49.3301 64.4967 52.5292 64.4967 55.4519C64.4967 58.3746 63.1538 61.5738 59.4017 61.5738C55.6891 61.5738 54.3067 58.3746 54.3067 55.4519ZM62.4824 55.4519C62.4824 53.5166 61.6925 51.2654 59.4412 51.2654C57.1899 51.2654 56.4 53.5956 56.4 55.4519C56.4 57.3872 57.1899 59.6385 59.4412 59.6385C61.6925 59.6385 62.4824 57.2687 62.4824 55.4519Z" fill="#79862F"/>
<path d="M37.1656 45.4596L32.3471 37.9554C32.1891 37.7184 32.0311 37.3629 31.8731 37.0865C31.9126 37.3629 31.9126 37.6789 31.9126 37.9554V45.4201H29.9378V33.6108H31.8731L36.5731 40.9571C36.7311 41.194 36.8891 41.5495 37.0471 41.8655C37.0076 41.5495 37.0076 41.2335 37.0076 40.9571V33.6108H38.9824V45.4201H37.1656V45.4596Z" fill="#79862F"/>
<path d="M41.3916 39.5354C41.3916 36.6127 42.774 33.4136 46.4866 33.4136C50.2387 33.4136 51.5815 36.6127 51.5815 39.5354C51.5815 42.4581 50.2387 45.6573 46.4866 45.6573C42.774 45.6573 41.3916 42.4581 41.3916 39.5354ZM49.5672 39.5354C49.5672 37.6001 48.7773 35.3489 46.5261 35.3489C44.2748 35.3489 43.4849 37.6791 43.4849 39.5354C43.4849 41.4707 44.2748 43.722 46.5261 43.722C48.7773 43.6825 49.5672 41.3522 49.5672 39.5354Z" fill="#79862F"/>
<path d="M61.2975 45.4596L56.479 37.9554C56.321 37.7184 56.163 37.3629 56.0051 37.0865C56.0446 37.3629 56.0446 37.6789 56.0446 37.9554V45.4201H54.0698V33.6108H56.0051L60.7051 40.9571C60.863 41.194 61.021 41.5495 61.179 41.8655C61.1395 41.5495 61.1395 41.2335 61.1395 40.9571V33.6108H63.1143V45.4201H61.2975V45.4596Z" fill="#79862F"/>
</svg>
