<svg width="94" height="94" viewBox="0 0 94 94" fill="none" xmlns="http://www.w3.org/2000/svg">
<circle cx="47" cy="47" r="46.5" stroke="#AFB695"/>
<path d="M56.8344 62.5608C56.8344 63.7852 57.7429 64.7331 58.8092 64.7331C59.9151 64.7331 60.784 63.7457 60.7445 62.5213C60.7445 61.5339 59.5202 59.6776 59.0462 58.9272C58.8487 58.6507 58.6513 58.6902 58.4933 58.9272C58.0193 59.6776 56.795 61.5734 56.8344 62.5608Z" stroke="#79862F" stroke-miterlimit="10" stroke-linecap="round" stroke-linejoin="round"/>
<path d="M37.916 44.5511C37.916 44.5511 46.2496 51.6604 47.395 52.6083C48.5403 53.5562 50.3571 54.3461 51.937 54.4646C53.0428 54.5436 54.2672 55.8469 55.3731 56.7948C55.8865 56.2419 56.8739 55.057 57.3479 54.4646C56.242 53.5167 54.7412 52.4898 54.4647 51.4234C54.1092 49.883 53.0428 48.1847 51.937 47.2368C50.7916 46.2889 42.458 39.1797 42.458 39.1797" stroke="#79862F" stroke-miterlimit="10" stroke-linecap="round" stroke-linejoin="round"/>
<path d="M34.7563 42.4974C34.0849 43.2873 34.2033 44.4722 34.9933 45.1436C35.7832 45.815 36.9681 45.6965 37.6395 44.9066L42.9319 38.6268C43.6033 37.8369 43.4849 36.652 42.6949 35.9806C41.905 35.3091 40.7202 35.4276 40.0487 36.2175L34.7563 42.4974Z" stroke="#79862F" stroke-miterlimit="10" stroke-linecap="round" stroke-linejoin="round"/>
<path d="M31.2412 34.3216C32.505 32.8207 34.7168 32.6627 36.2176 33.8871L39.6143 36.7308L35.0328 42.1417L31.6361 39.298C30.1748 38.0342 29.9773 35.8224 31.2412 34.3216Z" stroke="#79862F" stroke-miterlimit="10" stroke-linecap="round" stroke-linejoin="round"/>
<path d="M16.3117 34.9144L13.2311 35.5068C13.1521 35.5068 12.9941 35.5463 12.8756 35.5463C12.9546 35.5858 13.0731 35.6253 13.1521 35.6648L15.5613 36.6522L15.2849 37.3236L11.4538 35.7438L11.7302 35.1119L14.7319 34.5194C14.8504 34.4799 14.9689 34.4799 15.0874 34.4799C14.9689 34.4405 14.8899 34.401 14.7714 34.3615L12.4017 33.3741L12.6781 32.7026L16.5092 34.2825L16.3117 34.9144Z" fill="#79862F"/>
<path d="M16.8647 29.4243C16.0353 28.8318 15.4033 27.7655 16.1933 26.6991C16.9832 25.6327 18.1681 25.8697 18.9975 26.5016C19.8269 27.094 20.4588 28.1604 19.6689 29.2268C18.9185 30.2932 17.6941 30.0562 16.8647 29.4243ZM18.563 27.094C18.0101 26.6991 17.2202 26.4621 16.7462 27.1335C16.2723 27.805 16.7857 28.4764 17.2991 28.8713C17.8521 29.2663 18.642 29.5033 19.116 28.8318C19.5899 28.1604 19.0765 27.4495 18.563 27.094Z" fill="#79862F"/>
<path d="M28.6344 19.7084L27.2521 20.5773L27.4496 21.5252L26.8176 21.9202L25.9092 17.5756L26.5017 17.1807L30.0168 19.8664L29.3849 20.2613L28.6344 19.7084ZM27.0151 18.484C26.8966 18.405 26.7781 18.2865 26.6597 18.2076C26.6991 18.326 26.7386 18.5235 26.7781 18.642L27.0546 19.9454L28.042 19.3134L27.0151 18.484Z" fill="#79862F"/>
<path d="M32.2286 14.2974L33.9664 13.7049C34.9538 13.3495 35.4672 13.8234 35.6647 14.4553C35.8227 14.8898 35.7437 15.4822 35.2302 15.8377L36.5731 17.1805L35.8227 17.457L34.5193 16.1932L33.6899 16.4696L34.2428 18.01L33.6109 18.2074L32.2286 14.2974ZM34.5983 15.4032C35.0328 15.2453 35.0723 14.9293 34.9933 14.6528C34.9143 14.3763 34.6773 14.1394 34.2034 14.2974L33.137 14.6528L33.5319 15.7587L34.5983 15.4032Z" fill="#79862F"/>
<path d="M42.221 16.1142L41.5101 16.1932L41.1151 12.757L39.9302 12.8755L39.8512 12.2041L42.9319 11.8486L43.0109 12.5201L41.826 12.6385L42.221 16.1142Z" fill="#79862F"/>
<path d="M47.8294 11.8486L48.5403 11.8881L48.2243 16.0352L47.5134 15.9957L47.8294 11.8486Z" fill="#79862F"/>
<path d="M53.6748 12.6782L56.2815 13.3497L56.1235 13.9816L54.2277 13.4681L53.9907 14.4555L55.2151 14.7715L55.0571 15.4034L53.7538 15.127L53.2798 16.8648L52.6084 16.6673L53.6748 12.6782Z" fill="#79862F"/>
<path d="M60.7445 15.166L61.3765 15.482L59.5991 19.2341L58.9672 18.9181L60.7445 15.166Z" fill="#79862F"/>
<path d="M64.5361 19.6292C65.0891 18.8788 66.195 18.1679 67.2218 18.9578C67.8538 19.4317 67.9723 20.0637 67.8538 20.5376L67.1823 20.3796C67.2218 19.9847 67.1429 19.7477 66.8269 19.5107C66.195 19.0368 65.5235 19.5502 65.1681 20.1031C64.7731 20.6561 64.5361 21.446 65.0891 21.8805C65.405 22.1174 65.721 22.0779 66.037 21.92L66.4319 22.5124C65.879 22.8284 65.2865 22.8679 64.6941 22.4334C63.6277 21.604 63.9437 20.4586 64.5361 19.6292Z" fill="#79862F"/>
<path d="M71.9613 23.3022L72.4353 23.8157L69.3546 26.6199L68.8807 26.1064L71.9613 23.3022Z" fill="#79862F"/>
<path d="M74.0546 31.5964L73.1857 30.1745L72.2378 30.372L71.8428 29.7401L76.1874 28.9106L76.5428 29.5031L73.7781 32.9787L73.3832 32.3468L74.0546 31.5964ZM75.3185 30.0165C75.3975 29.898 75.516 29.7796 75.595 29.7006C75.4765 29.7401 75.279 29.7796 75.1605 29.819L73.8571 30.056L74.4891 31.0829L75.3185 30.0165Z" fill="#79862F"/>
<path d="M79.3865 35.2695L79.6235 35.941L76.3454 37.0468L76.9773 38.9426L76.3454 39.1401L75.4765 36.5729L79.3865 35.2695Z" fill="#79862F"/>
<path d="M16.5882 58.6509L16.8647 59.4013L12.4807 61.0996L12.2042 60.3492L16.5882 58.6509Z" fill="#79862F"/>
<path d="M16.5092 68.4851L17.8916 65.207C17.9311 65.0885 18.0101 64.97 18.0891 64.8515C18.0101 64.9305 17.8916 65.0095 17.8126 65.049L15.3244 66.7078L14.8899 66.0364L18.8 63.4297L19.2345 64.0616L17.8521 67.2608C17.8126 67.3793 17.7336 67.4978 17.6546 67.6162C17.7336 67.5372 17.8521 67.4583 17.9311 67.4188L20.3798 65.7994L20.8143 66.4709L16.9042 69.0776L16.5092 68.4851Z" fill="#79862F"/>
<path d="M21.9992 71.408C22.7496 70.5391 24.0924 70.0257 25.1588 70.9736C25.8303 71.566 25.8698 72.1979 25.7513 72.7904L24.9614 72.6324C25.0008 72.2769 25.0008 71.882 24.6454 71.566C23.9345 70.9341 23.105 71.4475 22.6311 71.961C22.0782 72.5929 21.8017 73.4223 22.4336 74.0147C22.8286 74.3702 23.3815 74.3307 23.6975 73.9753L23.737 73.9358L23.105 73.3828L23.6185 72.8299L24.8429 73.9358L24.4084 74.4097C23.6185 75.3181 22.6311 75.2786 21.8807 74.6467C20.8538 73.6198 21.1698 72.3164 21.9992 71.408Z" fill="#79862F"/>
<path d="M29.8588 74.5278L31.7151 75.4757C32.742 76.0287 32.7815 76.7791 32.4261 77.4505C32.1891 77.9245 31.6361 78.3194 30.9647 78.2009L30.9252 80.3337L30.1353 79.8993L30.1748 77.8455L29.3059 77.411L28.4765 79.0304L27.7655 78.6749L29.8588 74.5278ZM30.7277 77.3715C31.2017 77.6085 31.4782 77.411 31.6361 77.0951C31.7941 76.8186 31.7941 76.4236 31.3202 76.1867L30.1748 75.5942L29.5824 76.7791L30.7277 77.3715Z" fill="#79862F"/>
<path d="M37.0076 77.6089L39.9698 78.3198L39.8118 79.0702L37.6 78.5568L37.3235 79.6627L38.6664 79.9786L38.5084 80.7291L37.1656 80.4131L36.8891 81.677L39.2193 82.2299L39.0614 82.9803L35.9412 82.2694L37.0076 77.6089Z" fill="#79862F"/>
<path d="M45.6966 78.7539C47.3555 78.7144 47.9874 79.8993 47.9874 81.0841C47.9874 82.1505 47.4739 83.4539 45.7361 83.4539L44.3143 83.4934L44.2748 78.7539H45.6966ZM47.1975 81.0841C47.1975 80.2942 46.8025 79.5043 45.8941 79.5043H45.1042L45.1437 82.7035H45.8941C46.8815 82.664 47.1975 81.7951 47.1975 81.0841Z" fill="#79862F"/>
<path d="M52.2134 78.0036L53.0034 77.8062L54.0698 82.3877L53.2798 82.5851L52.2134 78.0036Z" fill="#79862F"/>
<path d="M57.2689 76.4635L60.0336 75.1602L60.3496 75.8316L58.2958 76.7795L58.7698 77.8064L60.0336 77.2139L60.3496 77.8854L59.0857 78.4778L59.6387 79.6627L61.8109 78.6358L62.1269 79.3072L59.2042 80.6501L57.2689 76.4635Z" fill="#79862F"/>
<path d="M68.9202 74.6862L65.5235 73.6198C65.4051 73.5803 65.2866 73.5408 65.1681 73.4618C65.2471 73.5408 65.3261 73.6198 65.4051 73.7383L67.3009 76.029L66.6689 76.5425L63.6672 72.9089L64.2597 72.3954L67.5773 73.4618C67.6958 73.5013 67.8143 73.5408 67.9723 73.6198C67.8933 73.5408 67.7748 73.4223 67.7353 73.3433L65.879 71.0921L66.5109 70.5786L69.5126 74.2122L68.9202 74.6862Z" fill="#79862F"/>
<path d="M74.3311 68.7221L73.8571 69.354L70.6975 67.0238L69.9076 68.0902L69.2756 67.6162L71.3294 64.812L71.9614 65.286L71.1714 66.3523L74.3311 68.7221Z" fill="#79862F"/>
<path d="M76.5429 62.9165L76.5824 62.1266C77.0563 62.1266 77.4908 61.8896 77.6487 61.4552C77.8462 61.0207 77.7672 60.6258 77.3723 60.4678C76.9773 60.3098 76.6218 60.6653 76.2269 61.0997C75.7529 61.6132 75.2395 62.2056 74.4101 61.8896C73.7782 61.6132 73.4622 60.9022 73.8571 59.9938C74.1731 59.2434 74.7655 58.9274 75.358 59.0064L75.279 59.7569C74.963 59.7569 74.6866 59.9148 74.5286 60.3493C74.3706 60.7443 74.4496 61.0207 74.7261 61.1787C75.042 61.2972 75.3185 60.9812 75.6739 60.5863C76.1479 60.0333 76.7798 59.4014 77.6882 59.7569C78.5176 60.1123 78.7151 60.9812 78.3597 61.8106C78.0042 62.5611 77.3328 62.956 76.5429 62.9165Z" fill="#79862F"/>
<path d="M12.9941 49.0929C13.6485 49.0929 14.179 48.5624 14.179 47.908C14.179 47.2536 13.6485 46.7231 12.9941 46.7231C12.3397 46.7231 11.8092 47.2536 11.8092 47.908C11.8092 48.5624 12.3397 49.0929 12.9941 49.0929Z" fill="#79862F"/>
<path d="M77.0958 49.0929C77.7502 49.0929 78.2807 48.5624 78.2807 47.908C78.2807 47.2536 77.7502 46.7231 77.0958 46.7231C76.4414 46.7231 75.9109 47.2536 75.9109 47.908C75.9109 48.5624 76.4414 49.0929 77.0958 49.0929Z" fill="#79862F"/>
</svg>
