<svg width="94" height="94" viewBox="0 0 94 94" fill="none" xmlns="http://www.w3.org/2000/svg">
<circle cx="47" cy="47" r="46.5" stroke="#AFB695"/>
<path d="M47.6715 47.8293C47.6715 49.1326 46.6446 50.1595 45.3412 50.1595C44.0378 50.1595 43.011 49.1326 43.011 47.8293C43.011 46.5259 44.0378 45.499 45.3412 45.499C46.6446 45.499 47.6715 46.5654 47.6715 47.8293Z" stroke="#79862F" stroke-miterlimit="10" stroke-linecap="round" stroke-linejoin="round"/>
<path d="M41.5496 57.4267C37.7185 55.8468 35.0328 52.0947 35.0328 47.7107C35.0328 47.2762 35.0723 46.8813 35.1118 46.4863" stroke="#79862F" stroke-miterlimit="10" stroke-linecap="round" stroke-linejoin="round"/>
<path d="M55.9656 46.1309C56.0446 46.6443 56.0841 47.1578 56.0841 47.7107C56.0841 52.1342 53.3193 55.9653 49.4488 57.5056" stroke="#79862F" stroke-miterlimit="10" stroke-linecap="round" stroke-linejoin="round"/>
<path d="M39.2194 39.2983C40.9967 37.9554 43.1689 37.1655 45.5387 37.1655C48.0269 37.1655 50.3177 38.0344 52.1345 39.4563" stroke="#79862F" stroke-miterlimit="10" stroke-linecap="round" stroke-linejoin="round"/>
<path d="M59.8362 42.4184C58.9277 41.9049 57.9798 41.5495 57.0319 41.3125C57.3874 40.1671 57.6244 38.9427 57.6244 37.6394C57.6244 33.9663 55.9656 30.7276 53.3588 28.5158C52.6874 27.9234 52.2925 28.0814 52.7664 28.7528C53.7933 30.1747 54.4252 31.952 54.4252 33.8478C54.4252 38.6268 50.5546 42.5369 45.7362 42.5369C40.9572 42.5369 37.0471 38.6663 37.0471 33.8478C37.0471 31.9915 37.6395 30.2537 38.6664 28.8318C39.1404 28.1604 38.8639 27.9234 38.1925 28.4764C35.5067 30.6881 33.8479 33.9663 33.8479 37.6394C33.8479 38.8637 34.0454 40.0486 34.4009 41.1545C32.9 41.431 31.4387 41.9839 30.0958 42.8528C26.9362 44.9066 25.0799 48.1848 24.7244 51.6604C24.6454 52.4503 25.0009 52.4898 25.2773 51.7394C25.9093 50.0806 27.0546 48.6587 28.6345 47.5923C32.663 44.9856 38.0345 46.131 40.6412 50.1595C43.2479 54.1881 42.1025 59.5595 38.074 62.1663C36.4151 63.2327 34.5193 63.6671 32.7025 63.5486C31.9521 63.5091 31.9521 63.8251 32.663 64.0621C35.9807 65.2074 39.7723 64.852 42.9714 62.7982C43.8404 62.2453 44.6303 61.5738 45.3017 60.8234C46.1311 61.7318 47.158 62.5612 48.3034 63.1932C51.5815 65.01 55.3731 65.089 58.5723 63.7856C59.3227 63.4696 59.3622 63.1142 58.6118 63.2327C56.795 63.5091 54.8597 63.1932 53.1219 62.2453C48.9748 59.9545 47.4345 54.6621 49.7647 50.436C52.095 46.2495 57.3874 44.7091 61.574 47.0394C63.3118 47.9873 64.6151 49.4881 65.3261 51.1864C65.6025 51.8579 65.879 51.6209 65.7605 50.831C65.2076 47.3948 63.1143 44.2747 59.8362 42.4184Z" stroke="#79862F" stroke-miterlimit="10" stroke-linecap="round" stroke-linejoin="round"/>
<path d="M16.7857 33.7688L12.8756 34.3613C12.7572 34.3613 12.5992 34.3613 12.4412 34.3613C12.5597 34.4008 12.6782 34.4403 12.7967 34.5192L15.7983 35.9016L15.4034 36.731L10.6639 34.5192L11.0193 33.7293L14.8899 33.1764C15.0084 33.1369 15.2059 33.1369 15.3244 33.1369C15.2059 33.0974 15.0479 33.0184 14.9689 32.9789L12.0067 31.5966L12.4017 30.8066L17.1807 33.0184L16.7857 33.7688Z" fill="#79862F"/>
<path d="M18.5235 26.2645C17.5756 25.3561 16.9832 23.9342 18.1286 22.7098C19.274 21.4855 20.7353 21.9989 21.6832 22.9073C22.6311 23.8157 23.2235 25.1981 22.0782 26.462C20.9328 27.6863 19.4714 27.1729 18.5235 26.2645ZM21.0513 23.5788C20.4193 22.9863 19.4714 22.5519 18.7605 23.3023C18.0496 24.0527 18.563 25.0006 19.1555 25.5535C19.7874 26.146 20.7353 26.5804 21.4462 25.83C22.1571 25.1191 21.6437 24.1317 21.0513 23.5788Z" fill="#79862F"/>
<path d="M31.2412 19.5897L27.7655 17.6939C27.6471 17.6149 27.5286 17.5359 27.3706 17.4569C27.4496 17.5754 27.5286 17.6939 27.5681 17.7729L29.1479 20.6956L28.358 21.13L25.8698 16.509L26.6202 16.1141L30.0563 17.9704C30.1748 18.0494 30.3328 18.1284 30.4513 18.2073C30.3723 18.0889 30.2933 17.9704 30.2538 17.8519L28.674 15.0082L29.4639 14.5737L31.9521 19.1947L31.2412 19.5897Z" fill="#79862F"/>
<path d="M37.1656 14.6528L39.0219 14.2578L39.1798 15.0872L37.3235 15.4822L37.1656 14.6528Z" fill="#79862F"/>
<path d="M47.3555 16.43L46.4471 16.3905L46.684 12.0065L45.1832 11.9275L45.2227 11.0586L49.0933 11.2561L49.0538 12.125L47.5529 12.046L47.3555 16.43Z" fill="#79862F"/>
<path d="M55.0571 15.0474C55.4916 13.8231 56.558 12.7172 58.1773 13.3096C59.7572 13.9021 59.8361 15.4424 59.4017 16.6668C58.9672 17.8911 57.9008 18.997 56.2815 18.4046C54.7017 17.8121 54.6227 16.2718 55.0571 15.0474ZM58.4933 16.3113C58.8092 15.4819 58.8092 14.455 57.8614 14.0995C56.9135 13.7441 56.2025 14.613 55.9261 15.3634C55.6496 16.1533 55.6101 17.2197 56.558 17.5752C57.5454 17.9306 58.2168 17.0617 58.4933 16.3113Z" fill="#79862F"/>
<path d="M66.1555 21.683L64.1017 22.4334L63.2723 21.8015L66.274 20.6956L66.6294 17.7334L67.4588 18.3653L67.2219 20.3401L69.0782 19.6292L69.9076 20.2611L67.1034 21.288L66.7479 24.4477L65.9185 23.8158L66.1555 21.683Z" fill="#79862F"/>
<path d="M74.8445 25.751L75.3975 26.4619L71.1714 29.6216L70.6185 28.9106L74.8445 25.751Z" fill="#79862F"/>
<path d="M76.7403 33.8082C77.8462 33.3738 79.4655 33.3343 80.058 34.8746C80.4134 35.8225 80.137 36.5729 79.7025 37.0074L79.0706 36.3755C79.347 35.9805 79.4655 35.6645 79.268 35.1906C78.9126 34.2822 77.8462 34.4007 77.0958 34.6771C76.2664 34.9931 75.5159 35.704 75.8319 36.5334C75.9899 36.9679 76.3849 37.1259 76.8193 37.2049V38.1133C76.0294 38.0738 75.358 37.7183 75.0025 36.8494C74.4101 35.3486 75.5159 34.2822 76.7403 33.8082Z" fill="#79862F"/>
<path d="M12.6387 62.4428L14.9294 59.2041C15.0084 59.0856 15.1269 58.9671 15.2059 58.8487C15.0874 58.8882 14.9689 58.9671 14.8504 59.0066L11.7698 60.231L11.4538 59.4016L16.3513 57.4663L16.6672 58.2957L14.416 61.4554C14.337 61.5739 14.2185 61.6924 14.1395 61.8108C14.258 61.7319 14.416 61.6924 14.495 61.6529L17.5361 60.468L17.8521 61.2974L12.9546 63.2327L12.6387 62.4428Z" fill="#79862F"/>
<path d="M18.721 67.8934C19.7084 67.064 21.1698 66.5901 22.2756 67.8934C23.3815 69.1968 22.7101 70.5791 21.6832 71.4085C20.6958 72.238 19.2345 72.7119 18.1286 71.4085C17.0622 70.1052 17.7336 68.7228 18.721 67.8934ZM21.0908 70.6976C21.7622 70.1447 22.2756 69.2363 21.6042 68.4464C20.9328 67.6564 19.9059 68.0909 19.3135 68.6043C18.6815 69.1573 18.1286 70.0657 18.8 70.8556C19.4714 71.606 20.4983 71.2111 21.0908 70.6976Z" fill="#79862F"/>
<path d="M28.2 79.5051L28.042 75.5555C28.042 75.437 28.042 75.2395 28.042 75.1211C28.0025 75.2395 27.9235 75.358 27.8445 75.4765L26.1462 78.3202L25.3958 77.8463L28.0815 73.3438L28.8319 73.7782L28.9899 77.6488C28.9899 77.7673 28.9899 77.9648 28.9899 78.0832C29.0294 77.9648 29.1084 77.8068 29.1874 77.7278L30.8462 74.9236L31.5966 75.437L28.9109 79.9395L28.2 79.5051Z" fill="#79862F"/>
<path d="M36.4151 80.0186L38.2714 80.4925L38.074 81.3219L36.2177 80.848L36.4151 80.0186Z" fill="#79862F"/>
<path d="M46.5655 83.8496L45.6571 83.8891L45.5387 79.5051L44.0378 79.5446L43.9983 78.6757L47.8689 78.5967L47.9084 79.4656L46.4076 79.5051L46.5655 83.8496Z" fill="#79862F"/>
<path d="M53.8723 80.1764C53.4378 78.9521 53.5563 77.4117 55.1756 76.8588C56.795 76.3059 57.8219 77.4512 58.2563 78.6756C58.6908 79.9 58.5723 81.4403 56.9529 81.9932C55.3336 82.5462 54.3067 81.4008 53.8723 80.1764ZM57.3479 78.9916C57.0714 78.1622 56.4 77.3722 55.4521 77.6882C54.5042 78.0042 54.5042 79.1101 54.7412 79.9C55.0177 80.6899 55.6891 81.5193 56.637 81.2033C57.6244 80.8479 57.6244 79.742 57.3479 78.9916Z" fill="#79862F"/>
<path d="M65.8 75.0419L66.037 77.2141L65.2076 77.8461L64.8521 74.6864L62.0874 73.62L62.9168 72.9881L64.7731 73.699L64.5756 71.7242L65.4051 71.0923L65.721 74.0545L68.6832 75.1998L67.8538 75.8318L65.8 75.0419Z" fill="#79862F"/>
<path d="M69.2756 66.8266L69.8286 66.1157L74.0151 69.2754L73.4622 69.9863L69.2756 66.8266Z" fill="#79862F"/>
<path d="M75.279 62.0872C74.1731 61.6528 72.9487 60.5469 73.5412 59.046C73.8966 58.0981 74.6471 57.7427 75.2395 57.7427L75.279 58.6116C74.805 58.7301 74.4891 58.8881 74.3311 59.3225C73.9756 60.2309 74.8445 60.8628 75.595 61.1788C76.4244 61.4948 77.4513 61.4948 77.7672 60.6654C77.9252 60.2309 77.7672 59.836 77.4908 59.4805L78.0832 58.8091C78.6361 59.362 78.9126 60.1124 78.5571 60.9813C78.0042 62.5217 76.4639 62.5612 75.279 62.0872Z" fill="#79862F"/>
<path d="M13.942 48.303C13.942 48.9745 13.4286 49.4879 12.7571 49.4879C12.0857 49.4879 11.5723 48.9745 11.5723 48.303C11.5723 47.6316 12.0857 47.1182 12.7571 47.1182C13.3891 47.1182 13.942 47.6711 13.942 48.303Z" fill="#79862F"/>
<path d="M78.0437 48.303C78.0437 48.9745 77.5303 49.4879 76.8588 49.4879C76.1874 49.4879 75.674 48.9745 75.674 48.303C75.674 47.6316 76.1874 47.1182 76.8588 47.1182C77.5303 47.1182 78.0437 47.6711 78.0437 48.303Z" fill="#79862F"/>
</svg>
