<svg width="94" height="94" viewBox="0 0 94 94" fill="none" xmlns="http://www.w3.org/2000/svg">
<circle cx="47" cy="47" r="46.5" stroke="#AFB695"/>
<path d="M50.664 40.1296C50.6245 34.4817 49.0051 29.4658 46.4774 25.9111C43.9892 29.5053 42.4488 34.5607 42.5278 40.2086C42.5673 45.8565 44.1866 50.8725 46.7144 54.4271C49.2026 50.833 50.7034 45.7775 50.664 40.1296Z" stroke="#79862F" stroke-miterlimit="10" stroke-linecap="round" stroke-linejoin="round"/>
<path d="M50.664 40.1296C50.6245 34.4817 49.0051 29.4658 46.4774 25.9111C43.9892 29.5053 42.4488 34.5607 42.5278 40.2086C42.5673 45.8565 44.1866 50.8725 46.7144 54.4271C49.2026 50.833 50.7034 45.7775 50.664 40.1296Z" stroke="#79862F" stroke-miterlimit="10" stroke-linecap="round" stroke-linejoin="round"/>
<path d="M52.1253 43.0521C51.4144 43.763 50.8219 44.5134 50.2295 45.3033C49.6371 48.858 48.3732 52.0176 46.6749 54.4664C46.6749 54.4664 46.6354 54.4269 46.6354 54.3874C46.6354 54.4269 46.6354 54.4664 46.6354 54.5059C50.5455 54.1109 54.653 52.1361 57.9312 48.779C61.2488 45.3823 63.1051 41.2353 63.4211 37.3252C59.5505 37.6807 55.4429 39.6554 52.1253 43.0521Z" stroke="#79862F" stroke-miterlimit="10" stroke-linecap="round" stroke-linejoin="round"/>
<path d="M56.3513 51.0305C55.9564 51.07 55.5614 51.1095 55.1665 51.149C52.5203 53.0448 49.5976 54.1506 46.7934 54.4666C49.3606 56.0464 52.8757 56.9548 56.7068 56.7179C60.5774 56.4809 63.974 55.1775 66.3043 53.2817C63.7371 51.7019 60.2219 50.7935 56.3513 51.0305Z" stroke="#79862F" stroke-miterlimit="10" stroke-linecap="round" stroke-linejoin="round"/>
<path d="M46.7934 54.4271C46.7934 54.4666 46.7934 54.4666 46.7934 54.4271C47.0303 54.4271 47.2673 54.3876 47.5043 54.3481C47.2673 54.3876 47.0303 54.3876 46.7934 54.4271Z" stroke="#79862F" stroke-miterlimit="10" stroke-linecap="round" stroke-linejoin="round"/>
<path d="M55.4429 56.7576C52.0858 56.7576 49.0841 55.8886 46.7934 54.4668C47.7413 56.2836 48.8471 58.4164 51.1379 59.5618C53.4682 60.7071 56.5488 60.6676 58.5631 60.3122C57.9312 59.0088 56.8648 57.7844 55.4429 56.7576Z" stroke="#79862F" stroke-miterlimit="10" stroke-linecap="round" stroke-linejoin="round"/>
<path d="M41.1455 42.7757C41.8564 43.4866 42.4488 44.2371 43.0413 45.027C43.6337 48.5816 44.8976 51.7413 46.5959 54.19C46.5959 54.19 46.6354 54.1505 46.6354 54.111C46.6354 54.1505 46.6354 54.19 46.6354 54.2295C42.7253 53.8345 38.6177 51.8598 35.3396 48.5026C32.0219 45.106 30.1656 40.9589 29.8497 37.0488C33.7202 37.4438 37.8278 39.3791 41.1455 42.7757Z" stroke="#79862F" stroke-miterlimit="10" stroke-linecap="round" stroke-linejoin="round"/>
<path d="M36.9194 50.7543C37.3144 50.7938 37.7093 50.8333 38.1043 50.8728C40.7505 52.7686 43.6732 53.8744 46.4774 54.1904C43.9102 55.7702 40.395 56.6786 36.564 56.4417C32.6934 56.2047 29.2967 54.9013 26.9665 53.0055C29.4942 51.4257 33.0488 50.5568 36.9194 50.7543Z" stroke="#79862F" stroke-miterlimit="10" stroke-linecap="round" stroke-linejoin="round"/>
<path d="M46.4774 54.1903C46.2404 54.1903 46.0035 54.1508 45.7665 54.1113C46.0035 54.1508 46.2404 54.1508 46.4774 54.1903Z" stroke="#79862F" stroke-miterlimit="10" stroke-linecap="round" stroke-linejoin="round"/>
<path d="M37.7883 56.5202C41.1455 56.5202 44.1472 55.6513 46.4379 54.2295C45.49 56.0463 44.1472 58.1791 41.8169 59.3245C39.4866 60.4698 36.6824 60.4303 34.6287 60.0749C35.3001 58.7715 36.406 57.5471 37.7883 56.5202Z" stroke="#79862F" stroke-miterlimit="10" stroke-linecap="round" stroke-linejoin="round"/>
<path d="M46.4774 54.2295C46.4774 54.2295 46.4379 54.2295 46.4774 54.2295C46.4379 54.2295 46.4379 54.2295 46.4774 54.2295Z" stroke="#79862F" stroke-miterlimit="10" stroke-linecap="round" stroke-linejoin="round"/>
<path d="M46.6354 63.2746V54.2695" stroke="#79862F" stroke-miterlimit="10" stroke-linecap="round" stroke-linejoin="round"/>
<path d="M14.6438 36.6524C13.6169 36.218 12.669 35.2701 13.2219 33.8877C13.7749 32.5448 15.1177 32.5053 16.1841 32.9398C17.211 33.3743 18.1589 34.3222 17.606 35.7045C17.0135 37.0869 15.6707 37.0869 14.6438 36.6524ZM15.8681 33.7297C15.1572 33.4532 14.2488 33.4137 13.9328 34.2037C13.6169 34.9936 14.3278 35.665 14.9597 35.9415C15.6312 36.218 16.5791 36.2574 16.895 35.4675C17.2505 34.6381 16.5001 34.0062 15.8681 33.7297Z" fill="#79862F"/>
<path d="M16.5791 27.7264L17.7639 26.1071C18.4354 25.1987 19.1858 25.2777 19.7782 25.7121C20.2127 26.0281 20.4891 26.6205 20.2917 27.2525L22.3454 27.6079L21.832 28.3188L19.8572 27.9634L19.3043 28.7138L20.7261 29.7802L20.2522 30.4121L16.5791 27.7264ZM19.4228 27.292C19.7387 26.897 19.5807 26.5415 19.3043 26.3441C19.0673 26.1466 18.7118 26.0676 18.3959 26.502L17.6454 27.5289L18.6723 28.2793L19.4228 27.292Z" fill="#79862F"/>
<path d="M23.4118 23.1053C22.7009 22.2759 22.3454 20.8935 23.4118 20.0246C24.0833 19.4717 24.6757 19.5112 25.2286 19.6692L24.9522 20.4196C24.5967 20.3406 24.2412 20.3011 23.8858 20.5776C23.1749 21.17 23.5698 22.0389 24.0043 22.5524C24.5177 23.1843 25.3076 23.5398 25.9396 22.9868C26.3345 22.6709 26.374 22.1179 26.058 21.7624L26.0186 21.723L25.4261 22.2364L24.9522 21.723L26.1765 20.6961L26.5715 21.17C27.3219 22.0389 27.1639 22.9868 26.453 23.6188C25.3866 24.5272 24.2017 24.0137 23.4118 23.1053Z" fill="#79862F"/>
<path d="M32.8118 18.2078L31.1925 19.0373L31.311 20.1036L30.5606 20.4986L30.0471 15.6406L30.7185 15.2852L34.3127 18.5633L33.6017 18.9583L32.8118 18.2078ZM31.1925 16.707C31.074 16.628 30.9555 16.47 30.837 16.3515C30.8765 16.5095 30.8765 16.707 30.916 16.8255L31.074 18.2868L32.2589 17.6944L31.1925 16.707Z" fill="#79862F"/>
<path d="M40.553 16.6278L38.0253 14.2581C37.9463 14.1791 37.8278 14.0606 37.7488 13.9816C37.7883 14.0606 37.8278 14.2186 37.8278 14.2976L38.4992 17.1018L37.7488 17.2993L36.7219 12.8757L37.4723 12.7178L39.9211 15.0085C40.0001 15.0875 40.1185 15.206 40.1975 15.285C40.158 15.1665 40.1185 15.048 40.0791 14.969L39.4076 12.2043L40.158 12.0068L41.2244 16.4304L40.553 16.6278Z" fill="#79862F"/>
<path d="M45.253 11.4936L46.0429 11.4541L46.2009 15.9961L45.411 16.0356L45.253 11.4936Z" fill="#79862F"/>
<path d="M50.5455 13.863C50.7034 12.8361 51.4144 11.6118 52.7967 11.8092C53.6656 11.9277 54.1001 12.5202 54.2186 12.9941L53.4681 13.1916C53.3102 12.7966 53.1127 12.5991 52.6782 12.5202C51.8488 12.4017 51.4539 13.2311 51.3354 13.942C51.2169 14.6924 51.4144 15.5613 52.1648 15.6798C52.5597 15.7588 52.8757 15.5613 53.1127 15.2454L53.7841 15.6403C53.4287 16.2328 52.8362 16.5882 52.0463 16.4697C50.7034 16.2723 50.3875 14.9689 50.5455 13.863Z" fill="#79862F"/>
<path d="M65.0404 19.1956L63.3026 18.1687L62.3152 19.867L61.6438 19.472L63.9345 15.5225L64.606 15.9174L63.6581 17.4973L65.3959 18.5241L66.3438 16.9443L67.0152 17.3393L64.7244 21.2888L64.053 20.8939L65.0404 19.1956Z" fill="#79862F"/>
<path d="M71.1228 20.459L73.295 22.5128L72.7816 23.0657L71.2018 21.5649L70.4513 22.3548L71.4387 23.2632L70.9253 23.8161L69.9379 22.9077L69.069 23.8161L70.7673 25.4355L70.2539 25.9884L68.0026 23.8556L71.1228 20.459Z" fill="#79862F"/>
<path d="M74.5984 31.7157L76.6522 30.4124C76.7707 30.3334 77.0076 30.1754 77.1261 30.1359C76.9286 30.1754 76.7312 30.2149 76.5337 30.2544L73.848 30.6888L75.3488 28.3981C75.4278 28.2401 75.5858 28.0821 75.7043 27.9241C75.6253 28.0031 75.3883 28.1611 75.2698 28.2401L73.216 29.5435L72.7816 28.872L76.6127 26.3838L77.0471 27.0552L75.4278 29.504C75.3488 29.5829 75.2698 29.7014 75.1908 29.7804C75.3093 29.7409 75.4278 29.7409 75.5463 29.7014L78.4295 29.2275L78.8244 29.8594L74.9934 32.3477L74.5984 31.7157Z" fill="#79862F"/>
<path d="M81.0362 34.5986L81.6681 36.3759C82.0236 37.4423 81.5102 38.0743 80.8387 38.2717C80.2068 38.4692 79.3379 38.3112 78.9824 37.2843L78.627 36.218L77.0076 36.7709L76.7707 36.0205L81.0362 34.5986ZM80.5623 37.5608C80.8387 37.4818 81.1547 37.2054 80.9572 36.6919L80.5623 35.586L79.2984 36.0205L79.6933 37.1264C79.8908 37.6003 80.2858 37.6398 80.5623 37.5608Z" fill="#79862F"/>
<path d="M15.1177 57.5853C16.1841 57.1904 17.527 57.2694 18.0404 58.6517C18.5538 60.0341 17.5665 60.9425 16.5001 61.3374C15.4337 61.7324 14.0908 61.6534 13.5774 60.271C13.0639 58.8887 14.0513 57.9803 15.1177 57.5853ZM16.2236 60.587C16.9345 60.3105 17.6454 59.7576 17.3295 58.9282C17.0135 58.0988 16.0656 58.1383 15.3942 58.3753C14.6833 58.6517 13.9723 59.2047 14.2883 60.0341C14.6043 60.824 15.5522 60.824 16.2236 60.587Z" fill="#79862F"/>
<path d="M20.4102 63.9043L21.5555 65.5631C22.1875 66.511 21.832 67.1824 21.2396 67.5774C20.8051 67.8539 20.1732 67.9724 19.6202 67.5379L18.5934 69.3547L18.1194 68.6438L19.1068 66.906L18.5934 66.1161L17.132 67.1035L16.6186 66.432L20.4102 63.9043ZM19.8572 66.7085C20.1337 67.1429 20.4891 67.1035 20.7656 66.906C21.0026 66.748 21.2396 66.432 20.9236 65.9976L20.2127 64.9707L19.1463 65.6816L19.8572 66.7085Z" fill="#79862F"/>
<path d="M23.1749 71.2113C23.9253 70.3819 25.2286 69.908 26.2555 70.8164C26.8875 71.4088 26.927 72.0012 26.8085 72.5542L26.0186 72.3567C26.0581 72.0012 26.0581 71.6458 25.7421 71.3298C25.0707 70.6979 24.2412 71.1718 23.7673 71.6853C23.2144 72.2777 22.9379 73.1071 23.5698 73.6601C23.9253 74.0155 24.4782 73.976 24.7942 73.6206L24.8337 73.5811L24.2412 73.0281L24.7547 72.4752L25.9396 73.5416L25.5051 74.0155C24.7152 74.8844 23.7673 74.8449 23.0564 74.213C22.0295 73.3441 22.3849 72.0802 23.1749 71.2113Z" fill="#79862F"/>
<path d="M31.0345 78.5974L29.4547 77.7285L28.6648 78.4394L27.9539 78.0444L31.6665 74.8848L32.3379 75.2797L31.5875 80.0982L30.8765 79.7033L31.0345 78.5974ZM31.39 76.4251C31.39 76.2671 31.4295 76.0696 31.469 75.9512C31.3505 76.0696 31.232 76.1881 31.1135 76.2671L30.0076 77.215L31.153 77.847L31.39 76.4251Z" fill="#79862F"/>
<path d="M38.6177 82.507L37.5513 79.2288C37.5118 79.1103 37.4723 78.9918 37.4723 78.8338C37.4723 78.9523 37.4328 79.0708 37.3933 79.1498L36.6429 81.9145L35.8925 81.717L37.1169 77.333L37.8278 77.5305L38.8547 80.7691C38.8942 80.8876 38.9337 81.0061 38.9337 81.1641C38.9337 81.0456 38.9732 80.9271 39.0127 80.8086L39.7631 78.0834L40.5135 78.2809L39.2891 82.6649L38.6177 82.507Z" fill="#79862F"/>
<path d="M44.5026 78.834L45.2925 78.8735L44.9765 83.4155L44.1866 83.376L44.5026 78.834Z" fill="#79862F"/>
<path d="M49.4791 81.1642C49.3606 80.1373 49.6766 78.7549 51.0984 78.5969C51.9673 78.4784 52.5597 78.9129 52.7967 79.3474L52.1253 79.7423C51.8488 79.4263 51.6118 79.2684 51.1774 79.3079C50.348 79.4263 50.19 80.3347 50.269 81.0457C50.348 81.7961 50.7824 82.586 51.5723 82.507C51.9673 82.4675 52.2043 82.191 52.3623 81.8356L53.1127 82.0331C52.9152 82.7045 52.4808 83.1784 51.6513 83.2969C50.2295 83.4549 49.5976 82.3095 49.4791 81.1642Z" fill="#79862F"/>
<path d="M64.132 76.8591L62.3942 77.807L63.3421 79.5448L62.6707 79.9398L60.4589 75.9507L61.1303 75.5558L62.0387 77.1751L63.7765 76.2272L62.8681 74.6078L63.5396 74.2129L65.7513 78.202L65.0799 78.5969L64.132 76.8591Z" fill="#79862F"/>
<path d="M66.7782 71.8825L68.99 69.8682L69.5034 70.4211L67.8841 71.8825L68.6345 72.7119L69.6219 71.8035L70.1354 72.3564L69.148 73.2648L69.9774 74.1732L71.7152 72.5934L72.2287 73.1463L69.9379 75.2396L66.7782 71.8825Z" fill="#79862F"/>
<path d="M77.2051 66.7484L75.1908 65.4056C75.0723 65.3266 74.8354 65.1686 74.7564 65.0896C74.8749 65.2476 74.9934 65.4451 75.1118 65.5635L76.5732 67.8938L73.8875 67.4198C73.7295 67.3804 73.4925 67.3409 73.295 67.3014C73.4135 67.3409 73.611 67.4988 73.769 67.5778L75.7833 68.9207L75.3488 69.5526L71.5572 66.9854L71.9917 66.314L74.8749 66.8274C74.9934 66.8669 75.1118 66.8669 75.2303 66.9064C75.1513 66.8274 75.0723 66.7089 75.0328 66.6299L73.4925 64.1417L73.927 63.5098L77.7186 66.077L77.2051 66.7484Z" fill="#79862F"/>
<path d="M75.6253 60.0338L76.2572 58.2565C76.6522 57.1901 77.4421 57.0716 78.1135 57.3086C78.7454 57.5456 79.2984 58.217 78.9034 59.2439L78.5085 60.3103L80.1278 60.9027L79.8513 61.6531L75.6253 60.0338ZM77.837 58.059C77.5606 57.98 77.1656 57.98 76.9681 58.454L76.5732 59.5204L77.837 59.9943L78.232 58.9279C78.4295 58.454 78.153 58.138 77.837 58.059Z" fill="#79862F"/>
<path d="M79.3774 49.1334C80.0318 49.1334 80.5623 48.6029 80.5623 47.9485C80.5623 47.2942 80.0318 46.7637 79.3774 46.7637C78.723 46.7637 78.1925 47.2942 78.1925 47.9485C78.1925 48.6029 78.723 49.1334 79.3774 49.1334Z" fill="#79862F"/>
<path d="M14.4858 49.1334C15.1402 49.1334 15.6707 48.6029 15.6707 47.9485C15.6707 47.2942 15.1402 46.7637 14.4858 46.7637C13.8314 46.7637 13.3009 47.2942 13.3009 47.9485C13.3009 48.6029 13.8314 49.1334 14.4858 49.1334Z" fill="#79862F"/>
</svg>
